<?xml version="1.0" standalone="no"?>
<!DOCTYPE svg PUBLIC "-//W3C//DTD SVG 20010904//EN"
 "http://www.w3.org/TR/2001/REC-SVG-20010904/DTD/svg10.dtd">
<svg version="1.0" xmlns="http://www.w3.org/2000/svg"
 width="1280.000000pt" height="960.000000pt" viewBox="0 0 1280.000000 960.000000"
 preserveAspectRatio="xMidYMid meet">
<metadata>
Created by potrace 1.16, written by Peter Selinger 2001-2019
</metadata>
<g transform="translate(0.000000,960.000000) scale(0.100000,-0.100000)"
fill="#000000" stroke="none">
<path d="M0 6935 c0 -1830 3 -2665 10 -2665 7 0 7 -6 0 -20 -9 -16 -8 -18 5
-14 8 4 15 16 16 28 l0 21 9 -22 c13 -31 70 -56 101 -44 21 9 22 10 3 10 -19
1 -44 18 -44 31 0 3 11 6 25 6 14 1 25 -2 25 -7 0 -6 7 -6 18 -1 9 5 40 12 69
14 46 4 52 3 50 -13 -4 -21 -47 -58 -63 -52 -6 2 -17 -3 -24 -12 -7 -8 -19
-15 -27 -15 -8 0 -12 -3 -10 -7 3 -5 -10 -9 -29 -10 -35 -2 -47 12 -16 20 16
4 16 5 -1 6 -10 0 -27 10 -39 21 -41 38 -67 22 -75 -47 -3 -23 0 -33 9 -33 10
0 10 -2 0 -9 -20 -13 -10 -46 15 -49 12 -2 33 4 47 14 20 12 37 15 70 10 32
-5 54 -2 78 9 33 16 33 16 11 -3 -12 -11 -19 -23 -15 -27 4 -5 2 -5 -4 -2 -16
9 -84 -12 -91 -29 -3 -9 -20 -14 -47 -15 l-41 -1 29 -12 28 -13 -31 -6 c-19
-4 -31 -13 -31 -23 0 -13 7 -15 37 -9 l38 6 -32 -24 c-65 -48 -73 -66 -73
-169 l0 -93 28 30 c15 17 42 51 60 77 17 25 37 48 42 50 6 2 12 10 14 18 3 22
26 61 58 100 15 19 28 40 28 46 0 6 9 19 20 29 20 18 80 107 80 118 0 12 -18
7 -35 -9 -9 -9 -18 -14 -21 -11 -3 3 7 13 23 23 15 10 48 35 73 55 25 20 60
40 78 44 18 4 151 8 295 9 150 2 271 7 282 13 37 18 135 35 148 25 7 -5 43 -9
80 -7 45 1 64 -1 55 -7 -9 -6 -3 -7 17 -3 17 4 92 6 167 6 172 -2 190 2 182
38 -4 14 -8 29 -10 32 -1 3 -39 1 -84 -4 -45 -5 -83 -7 -86 -4 -3 2 0 16 7 29
8 19 16 24 36 20 18 -3 21 -7 12 -13 -8 -4 -10 -12 -5 -16 4 -4 18 5 31 22 16
19 20 32 13 36 -6 4 -8 19 -6 33 4 22 2 26 -17 26 -14 0 -26 -9 -34 -26 -6
-15 -14 -24 -18 -21 -3 4 0 13 7 22 10 13 9 15 -9 15 -11 0 -21 4 -21 9 0 10
116 25 130 16 14 -8 13 -7 -16 108 -48 193 -40 176 -77 172 -17 -2 -77 -7
-132 -9 -98 -6 -99 -6 -80 14 16 15 40 20 128 26 59 4 107 9 107 11 0 2 -90
363 -201 801 -110 438 -221 876 -245 972 -45 181 -55 240 -29 185 7 -16 14
-23 15 -15 1 11 4 9 10 -5 8 -18 9 -18 9 5 1 16 4 20 9 13 4 -7 27 -15 50 -19
36 -6 42 -10 43 -33 1 -18 4 -14 9 14 4 24 9 34 13 25 9 -23 83 -305 102 -390
20 -87 41 -172 118 -470 30 -118 71 -282 91 -365 19 -82 60 -251 90 -375 120
-495 167 -687 178 -735 6 -27 15 -66 19 -86 l9 -36 383 -2 c1247 -3 2736 -12
3010 -17 l317 -5 0 143 c0 205 21 660 31 678 6 11 8 8 9 -11 0 -20 6 -28 26
-33 14 -4 32 -2 40 4 15 13 34 5 34 -15 0 -8 4 -16 9 -20 6 -3 10 115 11 307
0 171 3 314 5 317 3 2 5 -192 5 -432 0 -426 0 -437 19 -437 11 0 23 5 26 10 3
6 -1 10 -9 10 -9 0 -16 5 -16 10 0 6 5 10 12 10 8 0 9 51 5 198 -4 108 -9 341
-11 517 -2 176 -1 282 1 235 3 -62 7 -81 14 -70 8 12 10 9 6 -12 -3 -18 0 -25
7 -22 6 3 2 -2 -8 -10 -19 -16 -19 -16 2 -16 12 0 22 5 22 11 0 5 5 7 10 4 6
-3 10 -1 10 4 0 6 -4 11 -10 11 -5 0 -10 7 -10 16 0 8 4 13 9 9 5 -3 12 -1 16
5 11 18 33 10 39 -15 6 -22 12 -25 51 -25 25 0 68 -10 97 -23 29 -13 99 -39
155 -57 56 -19 98 -37 94 -40 -9 -5 1 -6 224 -9 88 -1 125 -5 115 -11 -8 -5
-33 -10 -55 -11 -31 -1 -22 -4 35 -13 68 -10 75 -9 78 6 2 9 12 20 23 23 21 7
26 24 7 26 -7 1 -83 1 -168 0 -117 -2 -166 2 -200 13 -44 15 -45 16 -7 10 44
-6 50 11 7 21 -31 7 -51 25 -28 25 8 1 5 7 -7 16 -19 15 -17 16 33 12 64 -6
78 7 19 17 -23 5 -44 8 -47 9 -12 2 -62 46 -54 47 5 0 40 0 78 -1 43 -1 66 2
62 9 -4 5 -19 9 -34 9 -28 -1 -98 27 -107 43 -5 7 36 4 88 -6 32 -6 17 16 -23
33 -39 17 -57 39 -22 28 12 -4 26 1 37 14 18 20 18 21 -1 35 -23 17 -34 19
-34 5 0 -5 -4 -10 -10 -10 -17 0 -11 19 10 30 16 8 28 4 65 -25 54 -40 71 -43
125 -15 49 25 61 25 102 0 45 -27 73 -25 129 11 46 29 50 30 85 17 35 -12 36
-12 70 25 25 26 34 32 34 19 0 -18 -16 -253 -25 -366 -5 -63 -4 -68 12 -62 9
4 14 4 11 0 -4 -4 -3 -15 2 -25 14 -25 2 -51 -20 -44 -16 5 -18 -5 -24 -102
-8 -133 -14 -214 -21 -318 -26 -393 -35 -538 -33 -585 1 -52 1 -53 7 -15 6 39
7 40 36 34 l30 -6 -27 -7 -28 -8 20 -28 20 -29 -20 -6 c-11 -3 -20 -12 -20
-19 0 -15 81 -38 95 -27 5 5 22 1 37 -9 22 -13 25 -19 15 -29 -9 -10 -7 -12
13 -8 14 2 19 2 13 0 -21 -7 -15 -31 10 -36 l22 -4 -23 -9 -24 -10 26 -12 c32
-14 33 -36 3 -57 -21 -17 -21 -17 25 -12 26 2 50 1 55 -3 4 -5 19 -10 33 -13
14 -2 -296 -5 -687 -6 l-713 -1 -1 -477 c-1 -263 -5 -467 -9 -453 -4 14 -8 21
-9 16 -1 -6 -7 -1 -15 10 -13 17 -13 20 2 26 10 4 -5 7 -33 7 l-51 1 4 -42 c2
-38 1 -41 -10 -23 -10 15 -14 131 -19 472 -3 249 -8 455 -11 458 -2 3 -563 5
-1246 5 l-1242 0 0 25 0 24 -593 3 c-325 2 -593 2 -595 2 -2 -1 8 -48 22 -105
14 -57 42 -176 62 -264 53 -235 61 -269 88 -385 14 -58 42 -177 61 -265 61
-271 175 -769 181 -788 6 -18 38 -19 907 -13 851 6 1962 17 3251 32 l569 7 -7
-44 c-4 -24 -9 -46 -12 -49 -9 -9 -2068 -34 -3784 -46 -492 -3 -896 -7 -897
-8 -1 0 10 -46 23 -101 13 -55 42 -185 65 -290 22 -104 43 -200 46 -213 5 -21
3 -22 -64 -22 l-70 0 -21 88 c-11 48 -37 157 -56 242 -20 85 -83 355 -141 600
-59 245 -116 488 -128 540 -12 52 -25 97 -29 98 -5 2 -8 15 -8 28 0 16 -6 24
-17 24 -13 0 -14 -3 -5 -12 18 -18 15 -28 -8 -28 -11 0 -23 -7 -26 -15 -8 -21
-32 -19 -46 5 -19 30 -31 24 -24 -10 7 -35 3 -37 -24 -10 -11 11 -15 20 -8 20
6 0 9 3 5 6 -3 3 -16 -1 -29 -10 -12 -9 -31 -16 -41 -16 -13 0 -17 -5 -13 -15
3 -9 0 -15 -9 -15 -9 0 -15 10 -15 25 0 22 -3 25 -25 19 -15 -4 -25 -2 -25 5
0 6 -5 11 -11 11 -5 0 -8 -4 -4 -9 3 -5 1 -12 -5 -16 -5 -3 -10 -2 -10 4 0 5
-16 9 -35 8 -33 -2 -35 -4 -30 -27 l6 -25 -16 23 c-9 12 -14 26 -10 31 8 15
-15 25 -28 12 -14 -14 -87 -14 -87 0 0 6 -6 9 -13 6 -6 -2 -20 2 -29 11 -10 8
-25 12 -35 7 -17 -6 -17 -7 2 -20 11 -8 25 -19 32 -24 8 -7 13 -7 16 2 3 7 6
4 6 -5 1 -18 10 -22 44 -19 20 3 23 -15 4 -22 -7 -3 -5 -6 6 -6 9 -1 17 -5 17
-11 0 -5 9 -10 19 -10 29 0 36 -31 10 -51 -12 -9 -19 -21 -15 -28 4 -7 0 -11
-12 -11 -13 0 -19 6 -18 17 1 13 -7 18 -31 18 -18 0 -33 -3 -33 -7 0 -13 -96
-9 -123 5 -20 10 -42 12 -92 5 -48 -7 -71 -6 -81 3 -11 9 -14 7 -14 -10 0 -13
-4 -19 -10 -16 -6 4 -8 15 -5 25 7 22 -22 35 -41 19 -7 -6 -18 -8 -24 -4 -5 3
-14 -4 -18 -16 -6 -15 -11 -18 -16 -11 -4 7 -18 12 -31 12 -21 0 -22 2 -12 25
7 13 25 29 41 35 16 5 27 13 24 16 -8 7 -122 -34 -126 -46 -2 -6 -12 -10 -23
-10 -11 0 -22 -7 -25 -15 -4 -10 -18 -15 -43 -14 -22 1 -28 3 -14 6 27 5 62
52 55 73 -8 23 -29 40 -49 40 -15 0 -16 2 -3 10 14 9 7 15 -14 11 -18 -4 -66
11 -61 19 2 4 18 10 35 13 35 7 39 22 9 30 -14 4 -20 11 -16 20 4 10 -2 16
-19 20 -13 2 -24 1 -24 -4 0 -21 14 -39 31 -39 10 0 19 -4 19 -10 0 -12 -30
-13 -46 -2 -6 4 -13 15 -17 25 -7 18 -42 23 -52 8 -3 -6 -17 -6 -35 0 -20 7
-35 7 -49 -1 -12 -6 -27 -8 -33 -3 -11 6 -39 8 -65 4 -5 -1 -2 -5 6 -10 18
-11 22 -51 8 -69 -7 -9 -6 -11 6 -7 8 4 18 2 21 -4 4 -5 23 -8 44 -6 20 3 29
2 20 -1 -20 -6 -24 -34 -5 -34 8 0 7 -3 -3 -10 -11 -7 -17 -4 -22 10 -11 31
-27 24 -23 -10 2 -21 -1 -30 -11 -30 -18 0 -18 -24 -1 -38 7 -7 24 -11 38 -10
73 3 82 -22 14 -40 -28 -7 -45 -18 -45 -27 0 -8 5 -15 10 -15 6 0 10 4 10 9 0
9 60 24 68 17 2 -3 -13 -14 -35 -26 -24 -13 -29 -18 -13 -14 14 4 44 8 68 10
45 3 67 13 45 21 -20 7 -15 20 9 26 13 2 31 8 41 12 13 6 20 0 28 -24 12 -35
23 -39 38 -13 6 9 11 12 11 5 0 -6 10 -13 23 -15 20 -4 18 -6 -13 -19 -52 -23
-108 -30 -112 -15 -2 10 -9 11 -28 3 -14 -5 -34 -12 -45 -14 -11 -2 -30 -14
-43 -26 -26 -27 -21 -57 10 -57 10 0 17 4 14 9 -8 12 29 20 45 10 10 -6 11 -9
2 -9 -7 0 -13 -6 -13 -13 0 -21 -67 -20 -79 1 -8 14 -12 15 -22 4 -21 -20 -59
-15 -59 8 0 12 -7 20 -16 20 -10 0 -14 6 -10 15 3 9 0 15 -9 15 -8 0 -15 4
-15 8 0 5 8 8 17 8 10 -1 19 4 21 9 1 6 -9 10 -22 11 -13 1 -31 4 -39 7 -23 9
-41 -17 -23 -32 11 -9 15 -9 19 1 3 9 7 8 12 -4 13 -32 0 -44 -44 -40 -23 2
-38 8 -35 14 4 5 15 8 25 5 23 -6 24 -1 4 19 -11 11 -19 12 -34 4 -44 -23 -47
2 -6 44 9 8 11 17 6 21 -6 3 -16 -2 -23 -11 -7 -9 -24 -27 -37 -40 l-24 -24
54 -25 c34 -15 46 -25 33 -25 -12 0 -29 -11 -38 -25 -9 -14 -21 -25 -27 -25
-5 0 -3 10 5 22 21 29 21 44 0 24 -17 -17 -34 -21 -34 -8 0 4 5 13 12 20 8 8
9 12 1 12 -6 0 -19 3 -28 7 -14 5 -16 2 -10 -17 6 -18 4 -22 -7 -17 -8 3 -34
-6 -58 -19 -49 -28 -50 -28 -50 -11 0 7 9 18 20 25 29 18 25 34 -7 30 l-28 -3
-2 -88 c-1 -77 0 -87 13 -76 11 9 18 9 26 1 14 -14 1 -32 -23 -32 -10 0 -19
-5 -19 -11 0 -7 11 -8 30 -4 19 4 30 3 30 -4 0 -6 -5 -11 -11 -11 -18 0 -39
-28 -33 -43 3 -8 1 -18 -5 -22 -13 -7 -15 -65 -2 -65 5 0 14 7 21 15 18 22 37
18 43 -7 8 -29 3 -33 -38 -30 l-35 3 0 -96 c0 -75 3 -94 12 -88 16 10 78 11
78 1 0 -16 48 -7 65 12 11 12 30 20 49 20 l31 -1 -25 -14 c-14 -7 -25 -17 -25
-22 -1 -4 -6 -17 -12 -28 -10 -19 -12 -24 -14 -42 0 -5 -4 2 -9 15 -8 18 -16
22 -44 20 -19 -1 -32 -6 -30 -10 3 -4 -11 -8 -30 -8 -20 0 -36 5 -36 10 0 6 9
10 20 10 12 0 20 7 20 16 0 11 -5 14 -16 10 -9 -3 -20 -6 -25 -6 -5 0 -9 -13
-9 -29 0 -37 24 -46 77 -32 44 12 59 14 50 5 -4 -4 1 -20 10 -35 17 -28 10
-57 -7 -30 -7 12 -11 12 -23 -1 -16 -15 -72 -13 -83 3 -13 22 -24 5 -24 -36 0
-45 0 -45 34 -45 25 0 40 7 54 25 14 18 30 25 58 26 64 2 94 10 94 24 0 9 11
13 35 10 37 -3 51 15 39 51 -6 16 -5 17 7 6 7 -6 21 -12 31 -12 10 0 18 -4 18
-10 0 -5 6 -10 14 -10 19 0 46 -38 39 -56 -3 -8 -9 -11 -14 -8 -5 3 -7 10 -4
15 7 11 -23 0 -50 -18 -22 -14 -39 -17 -31 -5 2 4 -4 9 -15 9 -12 1 -18 -3
-16 -10 5 -15 -10 -47 -23 -47 -6 0 -11 10 -11 23 -1 16 -2 18 -6 5 -2 -10 -8
-18 -13 -18 -5 0 -7 7 -4 15 9 22 -22 19 -45 -4 -13 -13 -16 -22 -9 -29 7 -7
-5 -13 -38 -18 -27 -4 -52 -7 -57 -6 -4 1 -7 -3 -7 -9 0 -7 -11 -8 -30 -4 -23
5 -30 3 -30 -9 0 -9 -4 -16 -10 -16 -5 0 -10 -25 -10 -55 0 -49 3 -56 27 -71
66 -41 103 -67 103 -75 0 -4 -9 -11 -20 -14 -11 -3 -20 -13 -20 -21 0 -8 -7
-14 -15 -14 -8 0 -15 -4 -15 -9 0 -11 25 -21 51 -21 10 0 19 -4 19 -9 0 -5 48
-10 107 -10 396 -4 483 -7 483 -13 0 -5 25 -8 56 -8 35 0 53 4 49 10 -4 6 -12
10 -18 9 -26 -3 -38 1 -32 12 4 6 13 8 21 5 8 -3 24 -1 36 4 15 6 -27 9 -126
8 -90 0 -152 4 -159 11 -7 7 2 12 32 17 24 4 40 11 38 18 -4 11 -10 13 -61 15
-23 1 -26 4 -17 15 9 11 9 16 0 21 -6 4 -15 1 -20 -6 -6 -10 -36 -14 -111 -15
-57 -1 -115 -5 -130 -9 -15 -4 -35 -5 -44 -1 -14 5 -14 8 1 23 13 13 19 13 25
3 6 -9 13 -7 30 10 16 16 19 25 11 33 -7 7 -13 3 -20 -14 -8 -21 -10 -22 -16
-6 -9 21 -25 22 -25 2 0 -10 -7 -15 -18 -13 -12 2 -16 -3 -14 -16 3 -14 -1
-17 -13 -12 -9 3 -22 6 -28 6 -7 0 -4 7 6 14 14 11 15 16 6 22 -7 4 -15 2 -17
-4 -2 -7 -10 -12 -18 -12 -13 0 -53 19 -64 30 -3 3 -16 11 -30 17 -16 8 -19
12 -9 12 9 1 29 17 43 36 22 28 33 34 61 33 28 -1 33 -4 24 -15 -9 -10 -7 -13
10 -13 11 0 20 5 19 12 -2 6 20 19 47 30 61 22 75 23 75 3 0 -10 9 -15 28 -14
l27 1 -25 8 c-29 9 -6 13 28 4 13 -4 22 -14 22 -26 0 -17 2 -18 15 -8 20 16
25 11 15 -17 -6 -15 -21 -23 -49 -28 -22 -4 -45 -4 -51 0 -5 3 -10 -2 -10 -13
0 -27 57 -33 135 -14 33 8 95 15 139 17 43 1 81 7 85 12 3 6 15 15 27 21 17 9
25 7 42 -8 21 -20 48 -28 38 -11 -3 4 6 13 19 19 14 7 25 16 25 22 0 6 4 9 9
6 12 -8 -10 -54 -29 -60 -8 -3 5 -3 30 0 29 3 54 14 71 30 17 17 29 22 34 15
3 -6 -1 -14 -9 -17 -29 -11 -16 -24 25 -24 53 0 42 -16 -17 -25 -31 -4 -49 -3
-54 5 -5 7 -13 5 -28 -7 -20 -16 -20 -20 -6 -38 14 -19 16 -19 25 -2 11 18 49
24 49 7 0 -5 9 -10 19 -10 11 0 22 -4 25 -9 4 -5 -4 -7 -16 -5 -23 4 -23 4 0
-6 13 -5 28 -8 32 -5 5 3 11 1 15 -5 9 -14 68 1 83 22 9 13 20 17 34 12 14 -4
24 0 34 15 14 19 44 19 44 0 0 -4 -6 -6 -14 -3 -7 3 -16 -2 -20 -12 -4 -12 -2
-15 9 -11 15 6 31 -8 18 -16 -5 -3 -36 -8 -71 -11 -60 -6 -99 -20 -114 -41 -4
-5 -16 -1 -29 10 -12 11 -19 14 -14 6 4 -8 2 -17 -6 -22 -11 -7 -9 -10 9 -15
35 -10 26 -31 -25 -56 -67 -33 -104 -59 -97 -69 3 -5 -2 -12 -10 -15 -9 -3
-13 -11 -10 -16 4 -6 -1 -8 -14 -4 -13 5 -21 1 -26 -11 -3 -10 -9 -24 -12 -30
-3 -7 1 -13 9 -13 8 0 17 6 20 14 6 15 23 25 119 73 32 15 58 33 58 40 0 17
35 26 71 18 31 -7 89 10 89 26 0 5 -4 9 -10 9 -5 0 1 11 13 24 27 29 137 49
137 25 0 -17 -58 -52 -71 -43 -5 3 -9 -2 -9 -10 0 -9 4 -16 9 -16 19 0 91 44
91 56 0 12 55 13 67 0 10 -9 45 -7 39 3 -9 13 74 6 112 -10 31 -13 44 -39 19
-39 -7 0 -13 -8 -13 -19 0 -34 42 3 68 59 5 10 7 11 7 2 1 -7 17 -29 36 -49
19 -20 35 -42 35 -48 0 -16 -20 -32 -45 -37 -12 -2 -16 -6 -9 -10 6 -4 23 0
38 8 36 18 37 18 29 -3 -3 -10 -2 -15 2 -10 5 4 19 0 32 -8 26 -17 28 -14 12
17 -8 15 -8 22 0 28 7 3 9 14 5 23 -7 19 -24 23 -24 6 0 -8 -5 -8 -15 1 -35
29 -5 49 82 53 15 1 31 6 35 12 10 13 98 9 112 -5 8 -9 0 -11 -36 -8 -27 2
-49 0 -50 -4 -3 -6 -33 -12 -90 -17 -4 -1 -5 -7 -2 -15 6 -16 69 -15 101 2 25
14 123 16 123 4 0 -5 -18 -7 -40 -5 -29 2 -40 -1 -40 -11 0 -16 38 -28 42 -14
2 6 22 11 45 12 23 0 39 4 37 8 -3 5 7 7 23 7 17 -1 21 -3 11 -6 -35 -9 -20
-28 27 -35 11 -2 26 -10 33 -18 11 -13 13 -13 23 3 5 9 15 17 20 17 25 0 81
-35 89 -54 8 -19 9 -18 10 9 1 28 2 29 14 12 8 -10 16 -14 17 -9 4 9 50 5 136
-14 28 -6 34 -3 42 17 9 21 10 22 10 4 1 -18 7 -20 46 -17 32 3 45 8 45 19 0
9 6 13 14 10 8 -3 17 1 20 9 3 8 12 14 20 14 9 0 13 -6 10 -14 -6 -14 32 -33
43 -22 4 3 -1 6 -10 6 -10 0 -17 7 -17 16 0 11 6 14 20 10 11 -3 29 -8 39 -12
22 -6 18 -34 -5 -34 -8 0 -14 -5 -14 -10 0 -6 15 -4 37 5 39 17 58 11 30 -9
-9 -7 -17 -20 -17 -28 0 -8 -5 -19 -11 -25 -7 -7 -3 -10 16 -8 21 3 25 0 20
-16 -7 -21 5 -25 23 -7 13 13 17 32 4 24 -4 -2 -15 2 -25 9 -17 12 -17 15 -2
38 9 14 23 28 31 31 11 4 9 -3 -6 -24 -12 -17 -16 -30 -10 -30 7 0 14 9 17 19
5 21 50 35 56 18 2 -6 9 -7 17 -2 8 5 35 7 61 6 26 -1 50 2 54 8 4 7 -16 11
-62 11 -70 0 -113 7 -113 19 0 3 12 6 28 7 25 1 130 11 195 18 15 2 27 0 27
-5 0 -12 47 -4 64 11 9 7 16 9 16 5 0 -4 6 -2 14 4 22 19 30 -6 12 -34 -17
-27 -31 -31 -41 -15 -9 15 -28 12 -22 -4 4 -9 -4 -15 -23 -18 -21 -3 -31 0
-34 11 -3 9 -4 5 -3 -9 2 -14 7 -24 12 -24 6 1 30 5 54 9 42 7 44 6 38 -16 -3
-13 -1 -29 5 -36 8 -10 6 -18 -8 -31 -10 -10 -23 -19 -27 -19 -5 -1 -12 -4
-15 -8 -4 -4 2 -6 13 -4 11 2 26 0 33 -4 17 -11 15 -30 -3 -23 -8 3 -15 1 -15
-4 0 -5 8 -11 18 -13 16 -4 16 -5 0 -6 -21 -1 -24 -17 -5 -25 6 -3 -7 -4 -30
-1 -33 4 -46 1 -60 -14 -10 -10 -25 -21 -33 -25 -8 -3 -3 -5 12 -3 19 3 28 -1
31 -15 6 -21 -9 -35 -17 -16 -2 7 -4 2 -3 -11 2 -20 -4 -27 -32 -35 -26 -7
-36 -7 -39 2 -2 7 -8 10 -13 6 -17 -10 -9 -24 15 -24 14 0 28 -5 31 -10 3 -6
-3 -10 -14 -10 -24 0 -37 -18 -23 -32 12 -12 4 -48 -10 -48 -6 0 -8 -6 -5 -13
4 -10 -3 -12 -23 -9 -30 4 -49 -12 -24 -22 8 -3 12 -2 9 4 -11 18 15 10 35
-10 11 -11 27 -20 35 -20 18 0 20 -16 3 -23 -7 -3 -3 -6 9 -6 13 -1 27 8 33
20 7 11 14 18 17 15 12 -12 42 14 36 31 -5 13 -2 15 11 10 9 -4 25 -1 36 5 15
10 23 9 40 -7 20 -18 21 -18 41 3 25 28 29 28 29 -2 0 -14 -6 -26 -13 -28 -11
-2 -11 -7 2 -20 16 -16 17 -14 19 33 1 37 -2 49 -12 49 -25 0 -27 16 -4 36 18
16 20 17 15 2 -3 -9 0 -19 9 -22 9 -3 14 1 14 12 0 26 23 71 38 77 10 4 12 -3
6 -27 -6 -29 -5 -31 9 -19 14 11 17 9 22 -16 10 -44 13 -50 14 -26 1 12 7 23
13 26 11 4 11 7 1 18 -11 11 -13 11 -13 -2 -1 -7 -7 4 -15 26 -18 50 -18 50 1
34 27 -22 60 -22 61 1 1 11 -3 22 -8 26 -6 4 -6 11 2 20 9 11 8 14 -4 14 -8 0
-17 -9 -20 -20 -3 -11 -10 -20 -16 -20 -14 0 -14 17 -1 25 6 4 8 11 5 16 -4 5
4 9 16 9 18 0 20 3 11 12 -7 7 -12 26 -12 42 l1 31 16 -30 c20 -38 36 -48 46
-29 5 8 13 12 19 8 6 -4 5 -10 -3 -15 -11 -7 -11 -9 1 -9 8 0 26 12 39 25 13
14 18 25 12 25 -6 0 -11 7 -11 15 0 8 8 15 18 15 10 0 23 5 30 12 9 9 15 9 24
0 10 -10 10 -15 -2 -22 -10 -7 -11 -10 -2 -10 6 0 12 -4 12 -10 0 -5 -7 -10
-15 -10 -8 0 -15 -5 -15 -10 0 -6 3 -9 8 -9 22 4 30 -3 24 -23 -4 -18 -2 -20
16 -16 12 4 22 2 22 -2 0 -5 3 -17 6 -27 6 -16 5 -16 -9 2 -15 18 -16 18 -17
3 0 -10 -6 -18 -14 -18 -8 0 -13 -8 -11 -17 1 -10 8 -17 15 -15 6 1 9 -2 5 -8
-3 -6 -10 -8 -15 -5 -8 5 -22 -36 -15 -44 3 -2 12 4 20 15 14 19 16 18 20 -24
2 -15 -1 -19 -9 -14 -15 13 -57 22 -51 12 3 -5 -1 -11 -7 -13 -7 -3 -1 -6 14
-6 15 -1 30 -5 33 -11 10 -17 32 -11 38 10 3 11 9 20 15 20 11 0 3 -48 -9 -56
-5 -3 -9 -14 -9 -25 0 -22 -20 -61 -37 -72 -35 -22 -55 -57 -33 -57 6 0 10 7
10 15 0 8 8 15 18 15 9 0 26 7 37 16 17 13 18 16 5 24 -10 7 -11 10 -2 10 6 0
12 10 12 23 0 26 16 54 26 45 4 -4 1 -21 -6 -38 -10 -25 -10 -36 0 -56 15 -27
23 -30 42 -11 7 7 22 16 33 21 16 6 17 9 5 16 -23 15 -50 12 -50 -5 0 -8 -4
-15 -10 -15 -5 0 -10 11 -10 25 0 15 6 25 15 25 9 0 12 6 9 15 -3 8 1 21 9 30
19 19 27 19 27 0 0 -9 6 -12 15 -9 10 4 15 0 15 -12 0 -13 3 -15 11 -7 9 9 7
16 -5 29 -20 19 -13 32 8 15 11 -9 14 -8 12 6 -1 15 6 17 39 15 22 -2 37 0 32
4 -4 4 -3 12 2 18 7 8 -2 10 -32 8 -31 -2 -38 -1 -27 7 8 6 25 11 36 11 25 0
56 30 33 30 -11 0 -11 2 1 10 8 5 23 7 33 4 10 -3 19 1 23 9 3 8 14 17 25 20
14 4 19 14 19 41 0 20 5 36 10 36 6 0 11 10 11 23 1 15 3 17 6 5 6 -23 29 -29
58 -16 30 13 33 28 6 28 -14 0 -18 5 -14 20 5 17 0 20 -26 20 -17 0 -31 -4
-31 -10 0 -11 -61 -13 -108 -4 -26 5 -30 10 -28 33 1 18 7 26 19 25 20 -2 22
17 5 34 -8 8 -5 14 16 22 15 5 36 10 47 10 10 0 19 4 19 8 0 5 13 9 29 9 22 0
28 -4 23 -16 -3 -10 3 -7 15 7 18 19 25 21 47 12 17 -6 24 -14 20 -22 -4 -7
-3 -8 5 -4 9 6 9 11 0 22 -9 11 -9 14 1 14 7 0 10 6 7 14 -6 15 50 29 59 14 9
-13 36 -9 48 8 8 10 27 16 52 16 21 0 42 4 45 10 4 5 23 10 43 11 20 1 36 5
36 9 0 4 7 8 17 8 15 0 15 -1 0 -18 -19 -21 -22 -32 -7 -32 6 0 10 5 10 10 0
13 37 50 50 50 6 0 10 5 10 10 0 6 7 10 17 10 9 0 14 -3 10 -6 -3 -3 5 -16 18
-28 18 -17 21 -26 13 -40 -7 -12 -7 -21 1 -29 8 -8 11 -4 11 16 0 17 5 27 15
27 8 0 15 -4 15 -10 0 -5 -4 -10 -10 -10 -5 0 -10 -5 -10 -11 0 -6 9 -9 20 -6
17 4 20 2 15 -16 -6 -22 -6 -22 12 1 14 18 21 20 31 10 16 -16 28 -2 12 17
-13 16 0 21 15 6 6 -6 60 -7 133 -3 101 6 125 4 137 -8 13 -13 15 -12 15 3 0
14 10 17 54 17 47 0 54 -3 60 -22 8 -32 7 -38 -5 -38 -5 0 -7 5 -4 10 3 6 -2
10 -11 10 -16 0 -16 -2 1 -20 13 -14 21 -17 26 -9 4 7 14 9 24 6 9 -4 14 -3
10 3 -3 6 -1 10 4 10 6 0 11 6 11 13 0 6 7 20 14 30 13 17 15 17 35 -4 l21
-23 0 28 c0 18 -4 25 -12 20 -7 -4 -8 -3 -4 4 10 17 33 3 40 -24 6 -24 7 -24
34 -7 15 9 37 25 49 36 21 19 22 19 52 -4 21 -15 44 -22 76 -22 30 0 45 -5 45
-13 0 -7 4 -16 10 -19 6 -4 8 10 5 37 l-5 43 22 -25 c14 -16 19 -19 15 -7 -4
9 -2 17 4 17 6 0 7 5 3 12 -4 7 -3 8 4 4 7 -4 12 -14 12 -22 0 -8 8 -27 19
-42 10 -15 32 -48 48 -74 17 -26 32 -45 35 -43 2 2 13 -12 23 -33 28 -53 65
-108 65 -96 0 5 -4 14 -9 20 -13 14 -52 126 -46 132 2 3 1 10 -4 16 -4 6 -11
32 -14 59 -6 43 -5 47 14 47 11 0 19 -6 17 -13 -2 -14 39 -97 50 -97 4 0 7 11
7 24 0 15 -5 22 -12 19 -7 -3 -13 2 -13 10 0 26 33 30 51 6 11 -16 18 -18 24
-10 4 8 18 10 34 7 19 -5 22 -4 11 3 -28 19 -1 23 39 5 23 -10 37 -20 32 -23
-11 -8 -24 -51 -15 -51 4 0 22 12 41 26 23 17 40 23 54 19 11 -4 34 -1 51 6
25 10 27 14 13 21 -12 7 -20 5 -28 -7 -8 -10 -19 -14 -30 -9 -18 7 -24 34 -7
34 6 0 10 -7 10 -15 0 -8 5 -15 10 -15 6 0 10 7 10 15 0 14 26 21 60 16 8 -1
33 -3 55 -5 34 -2 40 -6 39 -24 -1 -24 4 -26 26 -12 10 6 11 10 3 10 -21 0
-15 18 8 25 13 5 25 2 30 -6 4 -8 23 -12 46 -11 116 5 134 8 144 22 9 13 10
12 5 -2 -5 -16 2 -18 44 -18 28 0 52 1 54 3 2 1 13 -6 23 -16 11 -9 23 -14 26
-10 4 3 7 1 7 -5 0 -13 -8 -15 -65 -12 -22 1 -43 6 -46 12 -9 14 -62 6 -67
-11 -3 -9 2 -11 18 -6 19 6 21 4 15 -14 -5 -16 -2 -21 10 -21 10 0 15 6 12 13
-3 8 7 12 29 12 24 1 34 -4 34 -15 0 -12 2 -13 9 -1 5 7 15 11 22 9 8 -3 24
-1 36 3 20 7 23 4 29 -27 5 -28 9 -32 20 -23 16 13 19 33 4 24 -6 -3 -10 -1
-10 4 0 6 5 11 10 11 6 0 10 8 10 18 0 14 2 15 10 2 5 -8 10 -10 10 -5 0 6 22
11 50 12 28 0 50 -3 50 -8 0 -5 -7 -9 -17 -9 -9 0 -14 -2 -12 -4 2 -2 34 -1
71 3 53 6 71 4 82 -8 14 -13 16 -13 22 2 3 9 14 17 24 17 38 0 31 20 -7 21
l-38 1 35 8 c19 4 44 11 55 15 15 5 16 4 6 -3 -22 -16 -4 -34 19 -20 14 9 16
14 7 20 -7 5 5 6 27 4 21 -3 41 -8 45 -12 3 -4 -2 -4 -11 -1 -14 5 -18 1 -18
-16 0 -13 3 -17 8 -11 9 15 72 5 79 -12 3 -8 15 -14 27 -14 19 1 19 2 4 13
-18 14 -8 44 11 33 6 -4 9 -12 6 -17 -4 -5 3 -9 14 -9 11 0 25 -8 30 -17 9
-15 12 -15 19 -5 5 8 18 13 28 12 33 -4 42 0 47 18 4 14 5 15 6 1 1 -18 34
-31 48 -19 4 4 29 10 55 13 45 6 71 -6 67 -29 -3 -20 2 -34 12 -34 7 0 9 9 6
21 -3 12 0 22 8 25 8 3 11 12 8 20 -4 11 2 11 33 -2 26 -11 39 -13 42 -5 5 15
22 14 22 -2 0 -8 12 -14 30 -14 17 0 30 4 30 9 0 5 49 7 110 5 63 -2 110 0
110 5 0 5 5 6 12 2 8 -5 9 -2 5 10 -4 10 -3 15 3 11 6 -3 10 -15 10 -26 0 -24
9 -24 26 -1 13 16 13 16 14 -3 0 -15 2 -17 9 -6 5 7 13 11 19 7 6 -3 13 0 16
6 5 10 7 10 12 1 8 -18 27 -16 21 1 -4 11 6 15 39 18 24 2 44 0 44 -4 0 -5
-13 -8 -29 -8 -20 0 -30 -6 -34 -20 -4 -17 0 -20 31 -19 21 0 31 3 25 6 -21 8
-14 25 7 18 15 -5 20 -2 21 12 0 15 2 14 9 -4 5 -13 18 -23 29 -23 28 0 52
-11 46 -20 -3 -5 8 -3 24 3 23 8 33 8 45 -2 9 -7 13 -18 9 -25 -4 -6 1 -5 9 2
9 8 15 19 12 26 -5 14 22 30 36 21 5 -3 11 -1 14 4 3 5 14 7 25 4 10 -2 25 2
34 11 13 13 16 14 21 1 7 -19 26 -20 26 -1 0 9 7 12 20 9 11 -3 28 -2 37 2 27
12 86 11 102 0 12 -8 13 -6 8 8 -6 15 -4 16 16 6 12 -7 25 -16 28 -21 3 -5 9
-2 12 7 5 11 3 14 -6 9 -8 -5 -9 -4 -2 3 6 6 21 14 35 18 20 5 22 4 10 -5 -12
-10 -12 -11 5 -5 18 7 82 13 195 18 21 1 34 7 33 14 -2 7 4 10 12 7 11 -4 15
0 15 16 0 13 5 20 13 17 6 -2 11 -11 9 -18 -2 -9 4 -7 17 5 12 11 21 29 21 40
0 16 2 18 9 7 6 -10 10 -10 13 -1 2 7 22 14 43 16 22 3 46 6 53 9 6 2 12 0 12
-5 0 -6 3 -10 8 -10 4 0 18 46 31 103 13 56 26 108 29 116 4 12 -96 13 -664 8
-368 -4 -857 -8 -1086 -9 l-417 -3 -7 -65 c-3 -36 -9 -90 -13 -120 l-6 -55
-63 -3 -63 -3 5 33 c3 18 11 92 18 163 8 85 14 120 18 100 5 -26 7 -22 13 25
20 167 29 314 21 317 -6 2 -8 19 -6 38 2 19 8 32 13 29 5 -3 9 1 9 8 0 7 5 51
10 98 5 47 28 276 50 510 22 234 49 520 60 635 12 116 36 374 55 575 44 473
106 1119 111 1145 3 18 10 20 61 18 32 -1 632 -7 1333 -13 701 -5 1349 -12
1440 -14 125 -3 146 -3 85 4 -72 7 -643 16 -2362 37 -509 6 -553 8 -553 23 0
9 4 52 10 96 5 43 26 228 46 409 35 330 65 567 85 681 l11 61 118 2 c65 0 121
-2 123 -6 3 -5 -26 -9 -65 -9 -97 -2 -99 -14 -2 -14 43 0 196 -4 339 -10 143
-5 370 -12 505 -14 246 -5 355 -17 376 -42 7 -9 35 -15 71 -17 49 -2 59 -5 55
-17 -4 -12 -1 -11 15 3 28 25 36 21 10 -6 -14 -14 -25 -18 -29 -12 -5 6 -8 5
-8 -3 0 -8 -5 -10 -12 -6 -7 4 -10 3 -5 -1 4 -5 -7 -23 -24 -41 -31 -32 -40
-74 -25 -122 4 -11 2 -23 -4 -27 -5 -3 -10 -15 -10 -25 0 -10 -6 -21 -12 -24
-7 -4 -2 -4 10 -2 20 4 23 1 19 -15 -3 -10 -1 -19 4 -19 24 0 4 -27 -34 -45
-52 -25 -83 -70 -92 -134 l-7 -49 -103 -1 c-88 -1 -168 -14 -154 -25 2 -1 47
1 99 6 54 4 258 4 471 -2 237 -6 386 -7 400 -1 17 7 -42 10 -183 12 -311 2
-280 -2 -273 38 9 45 -14 132 -41 156 -25 23 -36 61 -25 90 8 19 8 19 15 -3 6
-17 11 -20 20 -13 9 7 46 9 105 4 l93 -6 -4 24 c-2 16 -11 25 -25 27 -27 4
-29 27 -8 86 7 21 11 46 8 55 -4 14 -3 14 6 1 7 -10 11 -11 11 -2 0 6 9 12 20
12 15 0 20 7 20 26 0 21 -4 25 -19 21 -15 -4 -22 2 -30 26 -6 16 -11 31 -11
31 0 7 72 -9 77 -17 4 -6 -3 -8 -20 -3 -27 6 -46 -8 -26 -20 8 -4 9 -3 5 5 -6
8 -1 10 17 6 18 -5 28 -2 35 10 8 15 20 17 83 11 41 -4 137 -8 214 -11 116 -3
382 -22 560 -40 22 -2 83 -6 135 -9 164 -10 198 -14 210 -21 6 -4 17 -1 25 5
8 7 20 8 27 4 7 -5 39 -8 71 -7 55 2 58 1 52 -20 -4 -17 -2 -16 10 6 20 35 25
34 21 -4 -3 -30 12 -28 18 2 2 8 11 42 21 77 l18 62 206 0 c113 0 211 4 218 8
9 6 52 137 105 319 2 9 -73 13 -302 18 -405 7 -1058 22 -1575 36 -410 11 -542
19 -317 19 62 0 111 4 110 9 -2 5 2 10 7 12 15 4 38 103 25 107 -15 5 -12 22
4 22 17 0 26 22 26 61 0 17 7 43 15 58 8 16 12 31 9 34 -3 3 2 17 11 31 14 21
15 29 5 41 -10 12 -9 16 3 21 15 6 24 29 31 89 2 17 10 43 17 59 11 23 11 30
1 34 -8 2 -6 9 7 20 11 10 24 37 30 62 18 78 35 135 44 141 5 3 8 9 8 13 -1 3
-1 7 0 9 0 1 2 15 4 32 5 37 32 60 52 44 12 -11 17 -5 14 14 0 4 3 7 9 7 5 0
10 5 10 10 0 6 -6 10 -14 10 -31 0 -36 25 -20 101 8 40 17 76 20 78 3 3 13 0
22 -7 23 -17 42 -25 46 -21 2 2 6 29 10 59 3 30 10 87 16 125 6 39 15 102 20
140 5 39 17 124 25 190 9 66 18 138 21 160 2 22 8 58 13 80 6 22 8 41 6 43 -6
6 -30 -81 -27 -101 1 -10 -3 -26 -9 -35 -8 -14 -9 -12 -6 11 2 15 0 30 -4 33
-5 3 -5 14 1 24 5 10 10 28 10 39 0 12 5 21 11 21 5 0 7 5 4 10 -9 15 -25 2
-25 -21 0 -11 -4 -17 -10 -14 -13 8 -13 65 0 65 6 0 10 9 10 20 0 11 5 20 10
20 6 0 10 7 10 15 0 20 -16 19 -24 -1 -3 -8 -10 -12 -16 -9 -13 8 -13 25 0 25
18 0 50 34 51 55 1 14 4 11 10 -10 7 -26 8 -24 5 13 -4 44 9 59 17 20 4 -20 4
-19 6 5 1 18 -4 27 -14 27 -8 0 -15 4 -15 10 0 5 8 6 18 3 14 -5 15 -4 6 8 -6
8 -13 25 -16 39 -3 20 0 26 14 26 21 0 23 -7 7 -23 -6 -6 -8 -17 -3 -24 11
-19 23 17 22 71 0 31 -2 38 -6 22 -4 -13 -10 -23 -14 -23 -5 1 -12 1 -17 1
-11 0 -21 49 -14 67 9 22 25 14 18 -8 l-7 -22 23 22 c19 18 32 21 59 17 71
-12 227 -18 233 -10 3 5 -9 9 -26 10 -18 1 -78 6 -134 12 -57 6 -111 9 -120 5
-12 -4 -9 1 7 15 17 15 20 21 10 22 -13 0 -13 1 0 11 12 8 11 9 -6 4 -20 -5
-21 -2 -19 40 3 44 -3 52 -38 46 -5 -1 -11 8 -14 19 -13 50 -29 12 -37 -93 -2
-26 -9 -54 -16 -62 -7 -8 -13 -38 -14 -67 -2 -29 -6 -77 -11 -105 -6 -38 -5
-53 4 -53 16 0 10 -78 -7 -85 -10 -4 -10 -9 0 -24 7 -11 16 -17 21 -14 5 3 6
-5 2 -18 -3 -13 -9 -33 -12 -44 -3 -10 -12 -25 -19 -33 -8 -7 -14 -21 -14 -30
0 -13 2 -14 9 -3 6 9 11 10 15 3 4 -6 -6 -18 -21 -26 -15 -8 -22 -15 -15 -16
6 0 12 -8 12 -19 0 -21 -25 -45 -38 -37 -10 6 -16 -27 -28 -144 -11 -105 -22
-102 -21 6 0 54 -5 126 -13 159 -16 71 -18 143 -7 205 5 29 5 40 -1 31 -7 -10
-9 -5 -8 16 2 16 6 35 10 41 4 6 11 50 16 96 6 47 14 96 20 110 6 18 6 26 -1
26 -6 0 -8 9 -4 20 4 12 2 27 -5 35 -7 8 -7 15 -1 19 10 6 8 83 -3 93 -3 4 -7
-16 -7 -43 -1 -27 -3 -41 -6 -31 -2 9 -11 17 -19 17 -17 0 -19 -16 -1 -24 8
-3 7 -8 -5 -16 -12 -7 -18 -23 -17 -43 l1 -32 9 33 c5 17 14 32 20 32 17 0 21
-28 9 -64 -6 -19 -11 -59 -12 -88 0 -41 -2 -48 -9 -30 -5 12 -6 30 -3 40 5 14
4 15 -5 2 -6 -8 -11 -25 -11 -37 0 -13 -4 -23 -10 -23 -5 0 -10 -8 -10 -17 0
-14 -2 -15 -9 -5 -7 12 -24 -86 -26 -155 -1 -12 -4 -25 -8 -29 -11 -11 -8
-102 3 -109 6 -4 7 -11 4 -17 -4 -7 -9 -6 -14 2 -9 14 -73 -366 -91 -538 -4
-46 -11 -91 -13 -100 -5 -15 6 -17 97 -19 56 -1 113 -6 127 -11 17 -7 -24 -8
-130 -5 -85 3 -159 9 -164 14 -6 5 3 9 21 9 30 0 32 3 38 43 28 204 141 1030
160 1172 14 100 25 189 25 198 0 16 -10 17 -82 15 l-83 -3 -12 -95 c-12 -90
-86 -662 -138 -1075 -34 -268 -31 -253 -59 -248 -30 6 -38 -8 -60 -112 -27
-127 -56 -247 -67 -283 -6 -18 -12 -50 -14 -71 -1 -20 -8 -48 -14 -60 -7 -12
-10 -29 -7 -36 2 -7 -2 -16 -9 -19 -8 -3 -12 -12 -9 -21 3 -8 1 -15 -5 -15 -6
0 -8 -6 -6 -13 7 -16 -55 -35 -88 -26 -15 4 -27 3 -29 -3 -3 -8 -10 -8 -24 0
-10 5 -57 11 -104 11 -47 1 -134 5 -195 10 -60 5 -114 6 -119 3 -4 -2 -12 1
-16 9 -12 18 8 52 26 45 8 -3 14 -1 14 4 0 6 -9 10 -20 10 -21 0 -22 7 -1 106
5 28 13 73 16 100 3 27 10 65 15 84 8 31 16 72 36 190 3 19 7 50 7 67 2 27 6
33 24 33 12 0 24 4 27 8 8 13 27 207 45 457 6 77 29 309 51 515 22 206 40 387
40 403 0 23 -4 27 -28 27 l-28 0 -11 -112 c-29 -278 -95 -873 -97 -875 -6 -6
-641 20 -648 26 -3 3 -3 47 2 96 5 50 16 173 25 275 8 102 20 230 25 285 5 55
12 146 16 203 l6 102 -86 0 c-77 0 -86 -2 -86 -19 0 -10 -22 -304 -50 -652
-27 -349 -50 -651 -50 -671 0 -28 -5 -38 -21 -43 -11 -4 -23 -5 -25 -2 -3 2 9
182 26 398 16 217 39 516 50 664 11 149 22 282 25 298 l5 27 -189 0 -189 0 -6
-27 c-3 -16 -8 -66 -10 -113 -3 -47 -11 -166 -17 -265 -12 -187 -22 -239 -33
-169 -3 21 -7 53 -8 71 -1 17 -5 30 -9 27 -4 -2 -5 -24 -3 -49 4 -33 1 -49
-10 -61 -11 -10 -16 -11 -16 -3 0 7 -3 9 -6 6 -4 -4 1 -18 10 -31 9 -14 16
-36 16 -48 0 -19 -2 -20 -10 -8 -7 12 -10 8 -10 -15 0 -22 3 -26 9 -16 8 12
11 9 17 -13 9 -36 -17 -58 -28 -23 l-6 22 -1 -23 c-1 -19 -5 -22 -21 -17 -20
6 -28 -9 -10 -20 15 -9 12 -25 -6 -25 -8 0 -12 5 -9 10 6 9 -16 40 -29 40 -10
0 33 -105 45 -109 8 -2 10 4 5 23 -8 32 1 35 13 4 5 -15 4 -26 -3 -30 -8 -5
-8 -13 1 -28 18 -27 16 -32 -6 -25 -13 4 -21 0 -25 -12 -2 -10 -4 -2 -3 17 1
25 -2 35 -13 35 -8 0 -16 -9 -18 -20 -3 -17 -1 -18 8 -5 10 12 11 11 6 -9 -3
-13 -1 -32 5 -42 6 -11 6 -20 -1 -24 -12 -7 -2 -34 23 -62 17 -20 18 -26 7
-53 -7 -17 -18 -33 -24 -37 -6 -3 -8 -3 -4 2 11 12 -48 46 -67 39 -23 -9 -7
-24 27 -24 23 0 28 -3 20 -12 -10 -13 -16 -48 -13 -78 1 -12 4 -12 12 3 5 9
19 17 31 17 14 0 18 5 14 15 -3 8 -2 15 3 15 5 0 11 -9 14 -20 3 -13 0 -20
-10 -20 -8 0 -11 -5 -7 -11 4 -7 -1 -10 -12 -7 -21 4 -47 -17 -57 -44 -4 -11
-12 -15 -22 -12 -8 4 -17 -1 -21 -10 -3 -9 -13 -16 -21 -16 -10 0 -12 -6 -8
-20 5 -16 2 -20 -15 -20 -12 0 -18 -4 -15 -11 4 -6 13 -8 21 -5 7 3 16 1 19
-4 4 -6 -6 -11 -22 -12 -65 -3 154 -16 295 -17 l153 -1 -2 -32 c-2 -18 -2 -52
-1 -75 l2 -43 41 0 c32 0 40 -3 35 -15 -3 -10 3 -17 20 -21 23 -6 23 -7 7 -19
-14 -11 -18 -28 -18 -87 0 -40 -3 -75 -6 -78 -8 -7 -42 -328 -53 -500 -2 -25
-6 -52 -9 -60 -6 -16 -19 -119 -21 -162 -1 -14 -4 -29 -7 -33 -4 -3 -5 -15 -2
-26 4 -16 14 -19 56 -19 28 0 48 -3 45 -6 -3 -3 -350 2 -770 10 -420 9 -822
17 -893 17 -72 1 -121 3 -110 6 11 3 25 11 30 18 6 7 19 15 30 18 18 4 18 5
-2 6 -28 1 -29 5 -1 33 14 14 18 23 10 26 -7 2 -9 9 -5 15 4 6 0 8 -9 4 -12
-4 -15 0 -13 19 1 13 -2 27 -7 30 -6 4 -6 9 1 14 8 5 9 14 2 33 -7 19 -7 27 0
27 6 0 7 5 4 10 -4 6 -1 18 7 27 9 12 9 15 1 9 -10 -5 -11 4 -7 37 5 38 3 46
-15 59 -19 14 -20 16 -5 22 11 4 14 13 10 30 -3 14 -2 27 3 30 4 3 7 30 5 60
-2 47 0 56 17 61 27 9 24 24 -7 35 -22 9 -24 13 -14 25 7 8 17 12 24 8 6 -4 4
1 -4 11 -19 24 -21 46 -4 46 17 0 19 20 2 21 -7 0 -4 4 7 9 19 8 19 9 -2 9
-17 1 -23 7 -23 25 0 48 8 56 58 51 l47 -4 -53 10 -53 11 3 36 c2 27 7 36 18
33 29 -9 135 -10 115 -2 l-20 8 20 5 c11 2 -15 8 -58 12 -42 4 -75 11 -72 16
3 5 -1 11 -7 13 -9 4 -9 6 -1 6 6 1 9 10 6 22 -6 21 -4 22 73 17 76 -5 78 -5
40 8 -21 8 -44 18 -50 24 -7 5 -21 7 -33 4 -11 -3 -24 -1 -27 5 -4 6 0 11 8
11 9 0 16 5 16 10 0 6 -4 10 -10 10 -5 0 -10 4 -10 9 0 5 6 9 13 8 40 -1 56 4
51 17 -3 8 -1 17 5 21 21 12 -18 37 -49 33 -17 -3 -30 -1 -30 4 0 4 9 8 20 8
20 0 20 6 14 648 -5 535 -9 649 -20 658 -8 6 -14 16 -14 23 0 6 -12 11 -26 11
l-25 0 5 -342 c3 -189 9 -491 12 -671 l6 -328 -59 5 c-32 3 -182 8 -333 12
-151 3 -340 10 -420 15 -80 4 -165 8 -190 9 -25 0 -52 5 -60 10 -13 10 -13 11
0 9 8 -1 22 -1 30 0 13 1 13 2 0 11 -11 7 -6 10 20 9 29 0 31 -2 15 -9 -18 -8
-17 -9 7 -9 20 -1 26 3 22 13 -4 11 0 13 17 9 13 -4 18 -8 11 -11 -34 -11 -1
-17 101 -19 61 -1 106 0 100 3 -23 10 -13 23 15 20 15 -2 38 -5 52 -6 14 -1
19 -4 12 -7 -6 -2 -9 -9 -6 -14 4 -6 11 -6 19 1 13 10 99 13 207 6 20 -1 35 1
32 6 -3 4 2 8 10 8 9 0 16 -4 16 -10 0 -17 27 -11 34 7 6 15 8 15 17 3 8 -12
9 -11 7 5 -3 19 -25 27 -68 25 -96 -5 -107 -4 -103 6 5 15 -34 22 -95 18 -26
-1 -40 0 -32 2 8 3 22 8 30 11 17 6 76 5 103 -3 9 -3 17 -1 17 4 0 23 -168 32
-181 10 -5 -7 -16 -7 -35 0 l-29 10 33 1 c17 1 32 6 32 12 0 6 -7 8 -16 5 -10
-4 -49 -8 -88 -10 -60 -3 -63 -3 -21 4 l50 7 -55 2 c-30 2 -65 2 -77 1 -33 -2
-176 19 -183 28 -6 9 -80 14 -177 12 -62 -1 -72 2 -67 15 4 10 19 15 46 15 23
0 37 4 33 10 -3 6 -34 10 -68 10 -39 0 -56 4 -47 9 19 11 172 -8 164 -20 -3
-5 2 -9 10 -9 9 0 16 7 16 15 0 8 7 15 16 15 9 0 35 5 57 12 32 10 36 13 21
19 -11 4 35 8 101 8 66 -1 114 -3 107 -6 -6 -2 -9 -9 -6 -15 4 -6 -3 -5 -15 2
-12 6 -30 8 -41 5 -11 -3 -42 -6 -70 -7 -27 0 -50 -4 -50 -10 0 -5 8 -7 19 -3
10 3 23 -1 30 -9 11 -13 7 -14 -26 -10 -21 3 -46 7 -56 9 -10 2 -33 -3 -50
-11 -31 -14 -30 -14 33 -9 47 4 61 3 50 -4 -13 -9 -13 -11 2 -11 9 0 39 4 65
10 41 8 171 16 381 21 39 1 52 5 48 15 -4 10 16 12 92 8 57 -2 89 -1 77 4 -11
5 -51 10 -89 11 -38 1 -73 4 -77 7 -15 9 3 34 24 34 11 0 18 3 14 6 -3 4 -28
3 -54 -1 -45 -7 -46 -8 -23 -18 l25 -10 -24 -5 c-13 -2 -27 1 -31 8 -8 12 -70
23 -70 12 0 -8 -278 -8 -285 0 -3 2 4 14 15 26 l21 22 -33 2 c-18 1 -51 3 -73
4 -22 0 -58 2 -80 4 l-40 3 35 6 c30 6 24 8 -40 14 -41 4 -114 8 -162 10 -103
2 -119 17 -20 18 58 1 62 2 32 9 -19 5 -60 12 -91 15 -65 7 -70 14 -67 105 1
52 2 53 5 11 5 -50 20 -70 48 -64 11 3 44 4 74 4 37 0 50 3 40 10 -8 5 -24 9
-36 9 -12 0 -25 5 -29 11 -7 12 49 8 96 -7 23 -7 24 -6 11 9 -11 15 -11 17 2
17 8 0 18 -6 20 -12 4 -9 8 -10 14 -3 4 6 38 11 75 10 64 0 84 -7 55 -18 -9
-4 -9 -6 1 -6 20 -2 13 -21 -8 -21 -11 0 -20 -7 -20 -15 0 -8 4 -15 8 -15 11
0 37 30 45 51 7 20 67 32 67 13 0 -7 -12 -15 -27 -17 -26 -4 -26 -4 5 -6 29
-1 32 2 32 29 0 25 5 30 38 39 46 13 102 14 102 2 0 -5 -9 -13 -20 -16 -11 -4
-27 -20 -35 -36 -15 -28 -15 -29 9 -29 14 0 34 9 45 21 16 18 24 19 55 11 20
-6 36 -7 36 -2 0 11 -26 20 -56 20 -17 0 -24 6 -24 18 0 17 9 19 118 16 165
-4 52 10 -213 26 -231 13 -245 16 -245 34 0 8 -5 16 -11 18 -7 2 6 4 27 5 34
1 37 0 21 -12 -16 -11 -13 -13 28 -17 37 -2 43 -1 30 9 -28 19 17 26 129 19
70 -5 96 -4 86 3 -8 6 -22 11 -31 11 -22 0 -72 47 -59 55 6 4 24 3 41 0 17 -4
71 -8 120 -9 70 -2 86 0 78 10 -15 18 33 29 74 18 l31 -9 -34 -23 -35 -22 32
0 c17 0 35 -4 38 -10 3 -5 14 -10 23 -9 13 0 12 3 -5 11 -30 15 -29 36 2 44
14 4 23 9 20 12 -12 13 -44 16 -131 15 l-91 -2 5 25 c5 28 16 26 -164 28 -101
1 -130 -2 -127 -11 4 -10 -20 -13 -101 -13 -58 0 -106 -3 -106 -7 0 -5 48 -7
107 -5 78 3 105 1 97 -7 -5 -6 -34 -12 -62 -12 -39 -1 -52 -5 -52 -16 0 -11
-5 -13 -17 -7 -10 5 -39 8 -65 9 -27 0 -48 2 -48 5 0 3 -31 5 -70 5 -66 0 -69
0 -72 -25 -2 -14 -8 33 -12 103 -5 70 -7 129 -5 130 2 1 24 0 49 -4 l45 -6
-42 -1 c-38 -2 -43 -5 -43 -26 0 -24 3 -25 113 -33 l112 -8 -115 -6 -115 -5
85 -3 c60 -2 78 -5 60 -11 -24 -8 -23 -8 8 -9 17 -1 32 4 32 9 0 6 31 10 73
10 43 0 67 4 59 9 -11 7 -11 9 1 14 9 3 17 -2 20 -13 6 -24 -10 -30 -85 -30
-121 0 -49 -8 135 -15 139 -5 191 -4 202 5 8 7 20 8 27 3 14 -9 162 -14 153
-5 -3 3 5 12 17 19 22 11 20 12 -19 13 -24 0 -43 5 -43 10 0 11 69 13 86 2 6
-4 13 -13 15 -21 5 -15 76 -23 85 -10 2 4 -12 11 -32 15 -41 7 -53 27 -31 49
18 17 45 19 67 5 11 -7 5 -10 -22 -10 -21 0 -38 -4 -38 -10 0 -8 41 -6 77 5 7
2 15 0 18 -5 7 -12 185 -13 185 -2 0 5 17 13 38 19 l37 10 -36 2 c-25 1 -39
-4 -43 -14 -5 -13 -21 -15 -88 -13 -47 2 -82 7 -81 13 1 5 7 11 14 14 7 2 9
-1 4 -9 -5 -8 0 -11 16 -8 37 5 32 22 -13 40 -31 13 -45 15 -55 7 -7 -6 -23
-9 -35 -6 -12 4 -27 2 -34 -4 -8 -6 -27 -6 -57 1 -44 9 -70 8 -129 -6 -16 -3
-28 -2 -28 2 0 13 58 37 70 29 6 -4 48 -3 93 1 l82 8 -105 8 c-58 4 -106 12
-108 17 -2 6 -10 11 -18 11 -9 0 -12 -4 -9 -10 3 -6 -1 -7 -9 -4 -11 4 -16 0
-16 -10 0 -9 -5 -16 -11 -16 -5 0 -7 5 -4 10 4 6 -15 10 -49 11 -31 1 -68 2
-83 4 -16 1 -94 3 -175 5 -89 2 -145 7 -141 13 3 6 80 7 197 3 105 -4 188 -5
185 -1 -4 3 -76 10 -161 15 -124 7 -167 5 -219 -6 -35 -8 -89 -16 -120 -18
l-57 -3 -6 45 c-3 25 -6 57 -6 72 0 24 -4 27 -40 28 -28 1 -42 -3 -49 -15 -9
-16 -11 -16 -30 6 -14 16 -21 19 -22 10 0 -8 -4 -4 -9 9 -13 31 -30 28 -30 -5
-1 -24 -2 -26 -13 -12 -7 9 -18 14 -24 12 -7 -3 -13 0 -13 5 0 6 5 12 11 14 9
3 7 19 -5 56 -10 28 -15 56 -11 62 4 6 -5 10 -21 10 -25 0 -26 -3 -21 -32 3
-18 7 -39 9 -47 1 -7 -3 -16 -10 -18 -8 -3 -12 10 -12 46 l0 51 -200 0 -200 0
-1 -42 c-1 -24 -1 -59 -1 -78 2 -29 0 -32 -7 -14 -5 12 -9 43 -9 69 0 26 -5
52 -10 57 -7 7 -9 -16 -7 -70 3 -55 0 -83 -8 -90 -9 -8 -12 3 -13 46 0 32 -2
72 -5 89 l-4 33 -107 0 -108 0 0 -25 c0 -58 126 -1214 133 -1221 2 -2 46 -7
98 -11 57 -4 99 -12 107 -20 8 -8 9 -13 3 -13 -18 0 -12 -26 12 -52 20 -22 22
-28 11 -43 -8 -10 -11 -22 -8 -26 3 -5 -6 -14 -20 -20 -14 -7 -23 -16 -20 -20
3 -5 1 -9 -5 -9 -6 0 -8 -6 -5 -14 6 -16 -45 -26 -121 -25 -40 1 -45 3 -25 9
16 5 19 8 8 9 -19 1 -29 32 -46 141 l-11 65 7 -80 c8 -97 7 -156 -1 -178 -7
-18 -42 -23 -51 -8 -8 12 -30 181 -107 826 -49 410 -67 570 -76 653 l-6 62
-325 0 -324 0 6 -42 c3 -24 24 -180 46 -348 22 -168 58 -429 79 -580 22 -151
38 -277 36 -279 -27 -26 -72 243 -175 1029 -21 160 -38 238 -39 179 -1 -25 35
-310 64 -514 8 -55 30 -217 50 -360 19 -143 40 -279 47 -303 14 -53 8 -60 -20
-23 -24 33 -49 199 -173 1144 -7 48 -16 90 -21 93 -5 3 -6 -5 -3 -18 3 -12 14
-95 25 -183 35 -272 110 -809 147 -1044 4 -23 2 -32 -6 -27 -6 4 -11 16 -11
26 0 10 -6 23 -14 27 -10 5 -21 58 -36 163 -11 85 -34 247 -50 360 -16 113
-36 259 -45 325 -8 66 -20 149 -25 185 -5 36 -12 86 -15 112 -6 44 -25 74 -43
66 -15 -6 147 -1178 167 -1202 12 -14 12 -86 0 -86 -5 0 -10 5 -10 10 -3 24
-20 63 -31 70 -7 6 -82 518 -142 969 -19 139 -31 200 -43 213 -17 19 -73 25
-73 7 0 -6 -13 -1 -29 10 -16 12 -31 21 -33 21 -9 0 92 -810 142 -1130 12 -78
12 -104 0 -70 -10 26 -37 216 -70 480 -11 85 -24 187 -30 225 -12 79 -60 471
-60 485 0 6 -73 10 -181 10 l-181 0 7 -66 c5 -51 4 -64 -6 -58 -9 5 -11 -6 -5
-52 4 -32 9 -86 11 -119 4 -56 4 -55 -10 20 -7 44 -18 100 -22 125 l-9 45
-119 6 -120 6 133 -1 c145 -1 139 -4 126 63 l-6 31 -849 0 -849 0 0 -2665z
m106 2323 c2 -18 15 -91 29 -163 28 -146 116 -632 146 -800 26 -152 53 -302
88 -490 17 -88 41 -221 55 -296 14 -75 28 -144 32 -153 3 -9 2 -16 -3 -16 -5
0 -24 80 -42 178 -73 390 -124 667 -201 1097 -45 248 -90 497 -101 555 -10 58
-19 111 -19 119 0 27 13 2 16 -31z m8090 -1064 l121 -6 -8 -41 c-4 -23 -15
-85 -23 -137 -18 -105 -33 -189 -42 -235 -19 -97 -24 -122 -29 -145 -8 -31
-15 -79 -16 -103 0 -10 -5 -15 -11 -11 -7 5 -9 0 -6 -12 4 -17 -1 -19 -66 -19
-59 0 -71 3 -74 18 -3 13 -14 17 -50 17 -26 0 -64 3 -84 6 -22 4 -38 3 -38 -3
0 -5 28 -10 62 -11 82 -2 88 -12 7 -13 -63 -1 -63 -1 -24 -11 22 -5 50 -7 62
-5 12 2 24 0 26 -6 2 -6 43 -11 95 -11 87 -1 92 -2 92 -22 0 -29 -17 -34 -117
-34 -59 0 -89 -4 -98 -14 -12 -12 0 -15 85 -21 55 -4 100 -10 100 -14 0 -4
-18 -5 -40 -3 -35 4 -40 2 -40 -17 0 -19 -4 -21 -32 -17 -18 3 -107 8 -198 11
-177 7 -250 19 -250 41 0 8 8 14 18 15 14 0 14 2 -3 9 -19 8 -19 9 3 9 l23 1
-20 29 c-28 39 -26 51 7 51 l27 1 -30 14 c-16 7 -24 14 -17 14 8 1 12 13 10
36 -1 19 2 38 6 42 11 11 427 3 448 -8 20 -11 115 -12 104 -2 -4 4 -21 7 -39
7 -28 -1 -28 0 -4 3 65 10 6 30 -73 25 -8 0 -32 3 -53 8 -21 4 -84 4 -140 -1
-70 -6 -103 -5 -108 2 -4 8 -13 8 -25 1 -11 -5 -38 -10 -61 -9 -47 0 -55 15
-41 72 6 26 25 194 33 290 1 17 5 50 8 75 8 58 16 122 17 136 0 11 255 10 506
-2z m-6086 -1924 c504 -11 1368 -27 1845 -35 171 -3 499 -10 730 -15 231 -5
762 -14 1180 -20 418 -6 910 -13 1094 -17 l334 -5 -5 -70 c-3 -38 -9 -72 -13
-76 -3 -4 -94 -6 -201 -4 l-194 3 0 -25 c0 -14 -14 -40 -34 -61 l-34 -36 -34
20 -33 20 -40 -24 c-86 -52 -81 -51 -139 -20 l-52 28 -56 -25 c-61 -28 -69
-27 -121 23 -32 31 -61 36 -102 17 -24 -11 -29 -9 -63 27 l-37 40 35 -32 35
-32 47 16 46 17 48 -37 c51 -40 57 -40 132 -5 l42 20 44 -26 c25 -14 51 -26
58 -26 8 0 36 14 63 31 33 21 56 29 72 25 13 -3 34 -9 47 -12 19 -5 28 1 46
28 l24 33 -27 -24 c-27 -24 -28 -24 -56 -8 -39 23 -51 22 -102 -13 -52 -35
-73 -37 -114 -10 -38 25 -68 25 -124 0 -24 -11 -46 -20 -50 -20 -3 0 -26 18
-51 41 -25 22 -37 37 -27 34 10 -4 17 -2 17 4 0 6 -15 11 -32 11 -18 0 -153 3
-300 7 l-268 6 -2 -84 -2 -84 -3 81 -4 82 -272 6 c-272 6 -1133 22 -1687 31
-162 3 -413 8 -558 11 l-263 6 5 -23 c14 -62 37 -261 32 -266 -15 -16 -26 21
-41 142 -9 72 -21 134 -25 139 -23 24 -25 -11 -5 -137 12 -80 17 -141 12 -144
-16 -10 -23 15 -41 152 -14 102 -22 135 -33 135 -9 0 -12 -7 -9 -17 10 -34 38
-264 33 -270 -16 -15 -26 19 -43 143 -12 91 -22 138 -31 141 -8 3 -16 4 -18 2
-2 -3 5 -61 16 -129 23 -150 23 -160 5 -160 -9 0 -18 33 -30 113 -9 61 -19
126 -22 144 l-6 31 -111 6 c-62 3 -361 9 -665 14 -304 5 -555 12 -558 15 -3 2
-13 39 -23 81 l-18 76 141 0 c77 0 346 -4 596 -10z m3609 -372 c-1 -40 -4
-107 -8 -148 -6 -75 -6 -75 -14 -30 -6 33 -10 41 -17 30 -7 -11 -10 -12 -10
-2 0 7 -4 11 -8 8 -4 -2 -14 -1 -22 4 -11 7 -18 3 -27 -13 -10 -19 -12 -6 -13
78 0 143 1 145 66 145 l54 0 -1 -72z m-5166 -3086 c-11 -8 -17 -23 -15 -37 2
-14 -1 -25 -7 -25 -6 0 -11 7 -11 15 0 8 -7 15 -15 15 -17 0 -20 -16 -5 -25
15 -9 12 -25 -4 -19 -8 3 -26 -2 -39 -11 -14 -9 -27 -12 -29 -7 -1 5 -14 12
-28 16 -17 5 -21 4 -11 -2 11 -8 11 -11 0 -18 -7 -4 -14 -3 -17 4 -4 14 -32
17 -32 4 0 -5 12 -15 26 -22 22 -12 27 -12 34 0 7 10 10 11 10 3 0 -7 -12 -21
-27 -30 -34 -22 -62 -54 -63 -70 0 -19 11 -16 44 11 17 13 38 21 48 18 24 -6
23 -24 0 -20 -25 4 -72 -22 -72 -39 0 -8 -5 -11 -12 -8 -7 4 5 -8 26 -27 l39
-34 -28 -22 c-25 -20 -26 -22 -7 -22 11 0 24 -4 27 -10 9 -15 25 -12 25 4 0
13 58 31 68 21 3 -3 -2 -5 -10 -5 -9 0 -18 -9 -21 -20 -3 -12 -14 -20 -26 -20
-20 0 -111 22 -143 35 -13 5 -18 2 -18 -9 0 -10 22 -22 70 -36 38 -11 72 -24
74 -29 3 -5 21 -12 39 -15 20 -4 34 -12 34 -21 0 -10 -8 -12 -27 -8 -17 3 -46
-3 -74 -16 l-47 -20 -11 24 c-6 14 -19 27 -30 30 -10 4 -18 11 -18 16 0 12 4
12 47 -6 47 -20 53 -18 25 5 -13 11 -30 16 -39 13 -11 -4 -14 -2 -9 5 4 7 3
12 -3 12 -5 0 -13 -5 -16 -10 -3 -6 -18 -8 -33 -5 -15 3 -21 2 -14 -1 25 -12
11 -19 -28 -16 -24 3 -40 0 -40 -7 0 -6 -7 -8 -15 -5 -9 4 -15 11 -14 18 4 35
-2 47 -20 41 -10 -3 -31 0 -47 6 l-29 11 24 9 c23 9 24 10 5 24 -18 14 -18 14
6 15 44 1 52 13 26 43 -15 18 -22 35 -19 48 5 19 3 20 -15 10 -11 -6 -22 -16
-24 -22 -2 -7 -9 -10 -16 -8 -14 5 18 49 39 52 8 2 30 17 48 35 18 17 37 29
42 26 5 -3 9 -1 9 5 0 13 -45 25 -59 17 -5 -4 -14 2 -20 12 -8 14 -4 24 19 45
29 28 63 37 54 14 -3 -9 6 -12 36 -9 25 3 40 0 40 -7 0 -10 32 -10 105 -2 6 1
3 6 -5 11 -8 5 -32 7 -52 3 -44 -7 -50 7 -10 24 25 11 84 10 139 -2 12 -3 25
-1 28 5 3 5 1 10 -6 10 -8 0 -9 3 -3 9 9 10 54 16 112 16 29 0 30 -1 15 -13z"/>
<path d="M3201 9573 c-1 -34 125 -1181 135 -1222 12 -52 14 -8 4 75 -6 49 -15
125 -20 169 -6 44 -33 283 -60 530 -53 468 -57 501 -59 448z"/>
<path d="M4272 9561 c-7 -21 -12 -50 -12 -64 0 -14 -6 -27 -12 -30 -17 -5 248
-19 342 -17 41 1 118 -1 170 -4 52 -3 168 -8 258 -10 l162 -5 0 65 c0 36 4 64
10 64 6 0 10 -28 10 -65 l0 -65 78 0 c44 0 134 -3 200 -7 l122 -6 0 91 0 92
-29 0 c-25 0 -30 -5 -34 -27 l-4 -28 -2 28 -1 27 -85 0 -85 0 5 -72 c3 -59 3
-65 -5 -33 -5 22 -9 55 -9 73 -1 31 -2 32 -47 32 -41 0 -46 -2 -41 -20 3 -11
1 -23 -4 -26 -5 -3 -10 -31 -10 -62 -2 -56 -3 -51 -15 56 l-5 52 -119 0 c-115
0 -119 -1 -123 -22 l-4 -23 -2 23 c-1 22 -3 22 -136 22 l-134 0 -7 -35 c-3
-19 -4 -44 -1 -55 3 -11 1 -20 -3 -20 -16 0 -24 24 -21 67 l3 43 -66 0 -65 0
-4 -42 -4 -43 -1 43 -2 42 -84 0 c-58 0 -86 -4 -89 -12 -4 -10 -6 -10 -6 0 -1
6 -7 12 -14 12 -10 0 -13 -14 -11 -50 1 -27 1 -50 -1 -50 -8 0 -35 64 -35 82
0 31 -16 20 -28 -21z"/>
<path d="M5740 9591 c0 -5 4 -11 9 -13 6 -2 13 -268 17 -660 7 -630 8 -658 26
-658 19 0 20 6 19 155 0 57 1 66 10 45 6 -14 7 -40 4 -59 -6 -30 -4 -33 14
-28 12 3 22 -1 25 -9 7 -18 -4 -45 -15 -38 -5 3 -5 -6 0 -19 8 -21 6 -26 -12
-32 -20 -6 -18 -8 12 -15 38 -9 62 -4 74 17 4 7 17 13 27 13 11 0 20 4 20 9 0
5 9 11 20 14 24 6 26 -5 5 -23 -8 -7 -15 -9 -15 -5 0 4 -6 2 -13 -4 -8 -6 -17
-8 -20 -4 -4 3 -7 -1 -7 -9 0 -12 12 -15 63 -13 34 1 64 3 67 4 8 2 -1 95 -11
106 -16 16 -11 48 7 41 12 -5 15 -2 10 9 -3 9 -2 13 4 10 6 -3 10 -21 10 -40
0 -19 5 -37 10 -40 11 -7 13 4 10 48 -1 15 3 27 9 27 6 0 11 6 11 13 0 7 9 29
20 50 11 20 20 43 20 51 0 9 -7 12 -20 9 -17 -5 -20 0 -20 26 0 50 -15 69 -47
63 -15 -2 -34 -9 -40 -15 -10 -7 -13 -4 -13 12 0 12 6 21 16 21 8 0 12 5 9 10
-3 6 1 13 10 16 9 4 14 13 11 21 -3 7 1 16 10 20 13 5 11 10 -11 30 -54 50
-116 49 -135 -3 -13 -34 -13 -53 1 -34 8 12 9 11 7 -5 -3 -13 -11 -19 -23 -18
-11 1 -14 0 -7 -3 15 -7 16 -25 1 -21 -11 2 -20 -23 -20 -55 0 -11 -6 -15 -15
-11 -9 3 -14 13 -11 24 5 19 -19 47 -30 35 -4 -4 -3 -10 2 -14 11 -8 17 -27
19 -57 1 -15 -5 -20 -21 -19 -13 0 -23 -3 -23 -8 0 -4 7 -8 15 -8 14 0 14 -3
0 -30 -19 -37 -24 -38 -17 -5 2 15 0 25 -7 25 -16 0 -13 39 4 56 8 9 15 24 15
35 0 10 -7 19 -15 19 -22 0 -20 63 3 83 23 21 32 21 32 2 0 -8 5 -15 11 -15 5
0 8 4 5 9 -3 4 -1 22 3 39 8 28 7 32 -19 41 -22 7 -30 6 -34 -4 -3 -8 0 -15 6
-17 8 -3 7 -11 -4 -27 -15 -21 -16 -16 -22 91 -12 239 -16 669 -6 663 5 -3 7
0 4 8 -3 8 2 17 10 20 12 5 16 0 16 -16 l0 -22 18 21 c17 21 72 39 72 24 0 -5
18 1 40 11 22 11 40 24 40 29 0 6 -50 10 -125 10 -69 0 -125 -4 -125 -9z"/>
<path d="M11711 9568 c-12 -39 -31 -145 -30 -167 0 -12 3 -10 9 4 l9 20 0 -20
c1 -25 -18 -58 -20 -35 -1 8 -7 -20 -14 -62 -7 -43 -20 -102 -29 -130 -8 -29
-27 -100 -41 -158 -14 -58 -29 -116 -32 -129 -3 -12 0 -47 7 -75 11 -48 9 -72
-20 -247 -17 -107 -40 -230 -50 -274 -11 -44 -21 -93 -23 -110 -2 -17 -5 -6
-6 26 0 31 -7 64 -16 75 -8 11 -15 14 -15 7 0 -21 -20 -15 -20 6 0 11 8 22 18
24 13 4 11 5 -5 6 -23 1 -23 0 -23 -135 0 -87 4 -133 10 -129 6 4 10 -9 9 -32
-1 -37 -2 -37 -8 -8 l-7 30 -5 -32 c-4 -25 -2 -33 10 -34 13 0 12 -2 -2 -8
-10 -4 -18 -10 -17 -14 1 -4 -1 -64 -4 -135 -4 -70 -9 -170 -11 -222 -5 -91
-20 -199 -50 -360 -36 -188 -40 -260 -14 -260 5 0 9 11 9 25 0 13 29 192 64
397 73 418 105 614 170 1028 73 461 176 1135 176 1148 0 24 -19 11 -29 -20z"/>
<path d="M11951 9268 c-29 -183 -64 -405 -78 -493 -91 -580 -298 -1811 -363
-2164 -46 -245 -46 -251 -22 -251 10 0 22 -4 28 -9 5 -5 98 -5 213 -1 113 5
212 5 220 2 9 -3 61 -30 116 -61 99 -55 99 -55 177 -52 l77 3 168 -122 c92
-67 169 -125 171 -130 5 -14 -49 -130 -60 -130 -5 0 -7 -8 -4 -18 3 -9 -18
-85 -48 -167 -72 -198 -183 -492 -196 -515 -8 -15 -4 -24 25 -48 49 -40 40
-64 -24 -62 -80 4 -94 2 -87 -16 8 -20 -29 -70 -39 -53 -4 6 -2 15 5 19 9 5 8
9 -3 13 -8 3 -25 -4 -38 -16 -25 -24 -25 -23 -66 -27 -27 -2 -27 -2 7 -12 19
-5 39 -13 44 -18 8 -8 -8 -47 -18 -42 -15 6 -26 1 -26 -13 0 -8 5 -15 12 -15
6 0 9 -3 6 -6 -7 -6 -49 16 -60 31 -5 6 -8 6 -8 -2 0 -6 24 -25 53 -42 30 -17
54 -37 54 -46 0 -20 -3 -19 -40 7 -18 12 -26 15 -19 8 16 -18 15 -30 -1 -30
-7 0 -21 13 -30 30 -10 17 -23 30 -29 30 -6 0 -4 -8 5 -18 19 -21 23 -37 6
-26 -6 3 -48 6 -93 5 -70 -1 -83 1 -98 19 -18 21 -38 27 -38 11 0 -5 10 -12
23 -16 21 -7 21 -8 -6 -12 -16 -3 -34 0 -40 5 -7 6 -29 10 -49 9 -23 -1 -33
-4 -25 -9 8 -5 7 -8 -6 -8 -10 0 -15 -4 -12 -10 3 -5 -3 -10 -14 -10 -14 0
-19 -5 -15 -15 4 -9 0 -15 -10 -15 -9 0 -16 -5 -16 -10 0 -11 -42 12 -77 44
-13 10 -26 17 -29 13 -4 -4 1 -9 10 -13 9 -3 16 -15 16 -25 0 -10 6 -19 14
-19 8 0 24 -11 37 -25 25 -25 49 -33 49 -15 0 6 7 10 15 10 8 0 15 -4 15 -10
0 -5 18 -13 40 -16 64 -10 50 -32 -21 -33 -34 0 -64 -3 -67 -5 -8 -8 315 -4
328 4 13 8 -23 22 -87 35 -18 4 -33 10 -33 15 0 4 -9 10 -20 13 -11 3 -19 10
-18 17 2 7 -17 13 -49 16 -41 3 -53 1 -53 -10 0 -12 -58 -30 -69 -20 -8 7 12
24 29 24 10 0 20 6 23 14 4 9 14 12 26 9 12 -3 27 -1 34 5 13 11 208 -1 262
-16 17 -5 36 -7 43 -5 7 3 11 -1 10 -9 -2 -7 5 -12 15 -12 21 2 22 -10 2 -30
-14 -13 -13 -16 2 -25 16 -9 14 -10 -9 -11 -49 0 -30 -16 41 -33 86 -21 84
-21 76 4 -7 20 -5 21 89 15 53 -3 96 -1 96 4 0 4 10 6 22 2 21 -5 21 -5 -3
-15 -23 -9 -23 -10 -4 -16 17 -7 16 -8 -8 -13 -15 -3 -27 -1 -27 4 0 5 -19 8
-42 6 -34 -2 -42 -7 -40 -20 2 -12 -6 -18 -30 -20 -34 -4 -26 -11 25 -22 15
-4 25 -11 22 -15 -5 -10 28 -18 80 -20 17 -1 32 -6 33 -11 2 -6 14 -10 27 -10
12 0 25 -6 28 -13 4 -10 -2 -13 -20 -9 -14 3 -28 0 -32 -7 -4 -6 -25 -12 -47
-13 -24 0 -46 -8 -57 -19 -17 -18 -17 -19 20 -19 28 0 34 3 23 10 -11 7 1 9
40 9 30 -1 47 -3 38 -6 -32 -8 -20 -25 12 -18 17 4 49 4 71 0 31 -5 38 -10 29
-20 -6 -7 -21 -11 -33 -9 -21 4 -21 4 -2 -5 11 -5 39 -10 62 -10 70 -1 102
-25 46 -34 -27 -4 -27 -4 3 -6 22 -1 36 6 47 22 l16 22 1 -25 c1 -14 4 -19 7
-12 8 19 61 15 66 -5 3 -10 5 68 6 174 l1 191 -30 14 c-16 7 -30 16 -30 19 0
3 -11 4 -25 1 -14 -2 -25 0 -25 5 0 6 -17 18 -37 29 -21 10 -44 23 -51 28 -7
5 -24 11 -38 12 -32 3 -114 43 -114 55 0 4 7 6 15 3 11 -5 8 6 -9 37 -18 31
-22 47 -15 55 12 14 42 7 33 -7 -3 -5 1 -6 8 -4 7 3 38 -18 68 -47 43 -41 56
-48 58 -35 5 24 35 14 91 -32 l44 -36 -28 -11 c-33 -13 -17 -29 21 -20 13 4
33 2 44 -4 20 -11 20 -1 20 1815 0 1278 -3 1825 -11 1825 -5 0 -8 -4 -4 -9 5
-9 -15 -118 -66 -371 -10 -52 -21 -108 -24 -124 -12 -78 -40 -118 -60 -86 -3
6 -1 10 4 10 17 0 13 70 -4 76 -20 8 -19 41 3 53 14 9 14 12 3 20 -10 7 -11
13 -1 31 7 12 13 55 15 94 1 39 6 79 10 89 5 11 3 17 -5 17 -8 0 -5 7 7 18 31
27 53 65 53 89 0 13 4 23 9 23 15 0 19 36 6 53 -16 22 -34 22 -51 0 -12 -17
-13 -16 -22 6 -6 16 -11 20 -16 13 -10 -16 -27 -15 -23 1 1 7 -10 13 -26 15
-25 3 -28 1 -22 -18 5 -16 2 -23 -14 -27 -12 -3 -21 -9 -21 -14 0 -5 -7 -9
-16 -9 -11 0 -15 -6 -11 -20 6 -23 -10 -27 -27 -6 -9 12 -17 12 -46 1 -19 -8
-29 -14 -22 -14 7 -1 10 -5 7 -11 -3 -5 -1 -10 4 -10 6 0 11 -6 11 -14 0 -21
61 -27 83 -8 11 10 17 11 17 3 0 -6 -7 -14 -15 -17 -30 -12 -14 -20 40 -22 59
-1 75 -7 75 -23 0 -14 -106 -1 -141 17 -16 8 -30 9 -40 3 -10 -6 -7 -9 14 -9
15 0 27 -5 27 -11 0 -6 -7 -8 -16 -5 -9 3 -27 6 -40 6 -14 0 -23 4 -19 9 3 5
-8 9 -24 9 -18 -1 -28 -5 -25 -13 3 -6 -1 -25 -7 -41 -7 -16 -11 -37 -10 -46
1 -11 -4 -18 -13 -18 -9 0 -16 -7 -16 -15 0 -17 16 -20 25 -5 4 6 11 8 16 4 6
-4 6 -11 -2 -20 -6 -8 -8 -14 -3 -15 5 -1 -2 -5 -16 -9 l-25 -8 28 -1 c36 -1
35 -21 -2 -21 -25 0 -28 -3 -25 -22 4 -21 4 -21 -5 -3 -5 11 -7 43 -5 70 4 46
3 47 -6 18 -14 -44 -8 -139 8 -135 17 3 15 -17 -3 -24 -8 -4 -15 -10 -15 -15
0 -4 7 -6 15 -3 19 8 19 3 0 -32 -18 -35 -19 -54 -2 -54 6 -1 3 -6 -8 -13 -11
-7 -20 -18 -21 -24 -2 -29 -5 -33 -18 -33 -17 0 -31 -33 -17 -38 6 -2 11 -10
11 -18 0 -17 16 -19 26 -3 4 7 -1 16 -10 21 -16 9 -16 11 3 29 11 10 25 19 31
19 15 0 12 -20 -5 -26 -16 -7 -10 -64 9 -76 6 -4 -4 -8 -21 -8 -36 0 -45 -19
-14 -27 14 -4 19 -12 17 -31 -2 -14 -8 -28 -15 -30 -6 -2 -11 -10 -11 -18 0
-24 -20 -16 -21 9 l-1 22 -6 -22 c-7 -20 -9 -21 -44 -8 -21 7 -38 9 -38 4 0
-5 7 -9 16 -9 9 0 14 -8 13 -17 -1 -10 0 -22 1 -28 3 -12 6 -33 9 -57 2 -25
20 -22 31 5 10 25 10 24 14 -20 2 -18 0 -30 -5 -27 -5 3 -6 -2 -3 -10 4 -11 0
-16 -11 -16 -12 0 -15 5 -10 20 4 11 2 20 -4 20 -6 0 -11 -10 -11 -23 0 -32
-43 -49 -100 -39 -42 7 -45 10 -48 41 -3 30 -4 32 -17 14 -13 -17 -14 -16 -15
9 0 40 9 56 29 51 14 -4 19 2 23 25 3 24 1 28 -14 24 -10 -2 -18 1 -18 7 0 6
9 11 20 11 14 0 20 7 20 21 0 11 5 17 10 14 6 -3 10 1 10 10 0 13 -6 16 -25
11 -22 -6 -25 -3 -25 19 0 14 5 25 10 25 6 0 10 -5 10 -11 0 -5 5 -7 10 -4 6
3 10 17 10 30 0 13 7 30 15 38 17 18 10 27 -22 27 -14 0 -23 5 -21 11 2 6 7
10 12 9 13 -3 25 21 19 37 -5 12 -7 12 -15 1 -5 -8 -6 -2 -2 17 4 16 13 36 21
43 7 7 13 21 13 30 0 10 9 25 20 35 11 9 20 22 20 29 0 9 -3 8 -10 -2 -5 -8
-10 -12 -12 -10 -19 30 -24 48 -17 65 7 19 8 19 8 1 1 -15 4 -17 12 -9 8 8 8
17 0 31 -24 45 -5 125 28 114 9 -3 11 0 6 8 -5 8 -1 18 9 26 13 9 15 17 8 31
-14 27 -21 112 -10 119 6 4 5 10 -3 15 -10 6 -5 9 16 10 17 0 23 3 15 6 -8 2
-22 7 -30 10 -11 3 -9 8 10 19 24 14 24 15 3 11 -13 -3 -23 -3 -23 0 0 11 31
222 46 313 9 52 17 106 19 120 6 48 31 203 85 520 28 170 40 246 40 259 0 6
-16 11 -38 11 l-38 0 -22 -142 c-12 -79 -26 -177 -32 -218 -5 -41 -12 -91 -14
-110 -4 -30 -24 -131 -41 -205 -8 -35 -14 -69 -20 -107 -5 -33 -10 -38 -33
-39 l-27 -1 25 -7 c28 -8 28 -13 12 -107 -15 -88 -31 -144 -42 -144 -5 0 -7
-6 -4 -14 3 -8 -4 -21 -16 -29 -25 -17 -19 -37 11 -37 14 0 19 -7 19 -29 0
-16 -6 -36 -14 -43 -7 -8 -12 -26 -11 -41 5 -42 -5 -65 -30 -71 -18 -5 -24
-15 -29 -48 -14 -104 -19 -128 -27 -128 -5 0 -9 -9 -9 -20 0 -11 5 -20 10 -20
6 0 10 -5 10 -11 0 -5 -4 -7 -10 -4 -5 3 -10 -3 -10 -14 0 -12 -4 -21 -10 -21
-5 0 -7 12 -5 28 3 15 12 77 20 137 9 61 20 135 25 165 13 72 16 95 34 225 9
61 25 169 36 240 25 154 60 406 59 414 -2 12 -29 -95 -30 -119 0 -14 -3 -20
-5 -14 -3 6 7 91 22 190 39 263 42 286 43 317 l1 27 -78 0 -78 0 -53 -332z
m431 -2763 c5 -5 -27 -204 -34 -210 -2 -1 -22 -5 -45 -8 -36 -4 -43 -2 -43 11
0 24 30 195 36 204 6 9 78 11 86 3z m83 -291 c11 -8 28 -14 38 -14 15 0 17 -3
8 -13 -6 -8 -8 -17 -4 -20 11 -12 23 -8 23 8 0 19 28 8 33 -13 4 -16 5 -16 6
0 0 9 -6 24 -15 32 -8 9 -11 16 -6 16 5 0 15 -7 22 -14 6 -8 35 -30 63 -48 57
-36 67 -46 61 -62 -2 -6 -8 -23 -14 -39 l-10 -28 -105 81 c-57 44 -108 80
-113 80 -5 0 -21 14 -38 31 l-29 31 30 -8 c17 -4 39 -13 50 -20z"/>
<path d="M9600 9544 c0 -9 -6 -28 -14 -42 -17 -32 -46 -124 -46 -147 0 -9 -4
-14 -9 -10 -11 6 -19 -23 -13 -48 4 -14 7 -16 13 -6 4 8 11 11 14 7 4 -3 -1
-18 -10 -32 -10 -15 -14 -33 -10 -46 4 -12 2 -20 -5 -20 -7 0 -5 -6 4 -15 9
-9 13 -27 11 -48 -2 -17 -6 -59 -9 -92 l-5 -60 19 25 c10 14 16 26 12 28 -5 1
-5 33 -1 70 4 37 5 91 3 120 -3 28 -1 52 4 52 5 0 12 30 14 66 2 39 9 69 17
74 8 4 10 13 6 20 -5 9 -4 11 3 6 8 -5 12 1 12 16 0 13 3 40 6 61 5 24 3 37
-5 37 -6 0 -11 -7 -11 -16z"/>
<path d="M4513 9400 c8 -37 -5 -46 -28 -20 -10 11 -23 20 -29 20 -6 0 2 -12
17 -25 23 -20 39 -25 85 -25 31 0 86 -2 122 -4 36 -2 50 -2 31 1 -19 2 -44 11
-57 20 -15 10 -24 11 -24 4 0 -7 -17 -10 -42 -10 -28 1 -34 3 -17 6 21 3 26 9
22 24 -3 10 0 19 6 19 6 0 11 -4 11 -10 0 -5 7 -10 16 -10 8 0 12 5 9 10 -3 6
-2 10 4 10 5 0 13 -5 16 -11 4 -6 37 -9 81 -8 41 1 77 -1 81 -4 11 -12 23 -8
23 8 0 10 10 15 33 14 29 0 30 -1 10 -9 -15 -6 -21 -15 -17 -25 4 -10 0 -15
-12 -16 -14 -1 -13 -3 6 -9 36 -12 128 -12 135 0 4 6 -12 10 -42 10 -65 0 -94
19 -33 21 25 1 52 2 62 1 16 -1 33 24 20 32 -4 2 -108 6 -232 9 -124 3 -217 3
-208 1 9 -3 15 -11 12 -19 -5 -11 -11 -11 -30 -3 -13 6 -21 15 -18 19 3 5 0 9
-7 9 -7 0 -9 -10 -6 -30z"/>
<path d="M10917 9383 c-3 -5 -8 -78 -12 -163 -4 -85 -11 -157 -16 -160 -5 -3
1 -30 12 -60 21 -54 21 -63 14 -519 -3 -255 -8 -469 -11 -475 -5 -14 13 -43
21 -34 3 3 7 175 8 382 1 207 5 376 10 376 4 0 7 100 6 223 -1 156 -4 212 -10
190 -5 -18 -12 -33 -15 -33 -3 0 -4 63 -2 140 2 77 2 140 1 140 -1 0 -4 -3 -6
-7z"/>
<path d="M9710 9028 c0 -7 -3 -30 -7 -52 l-6 -39 249 7 c137 4 338 7 447 8
108 1 197 5 197 8 0 11 -29 45 -30 35 0 -16 -130 -6 -130 10 0 8 15 17 38 20
20 4 42 8 47 10 6 2 -173 4 -397 4 -320 1 -408 -2 -408 -11z"/>
<path d="M10445 8329 c-9 -44 -14 -83 -11 -86 3 -4 6 2 6 12 0 10 2 16 5 13 4
-3 3 -18 -1 -33 -4 -16 -9 -22 -14 -15 -6 10 -33 -118 -33 -156 0 -8 -6 -14
-13 -14 -8 0 -11 -7 -7 -17 3 -12 -4 -8 -22 10 -25 26 -28 27 -44 13 -10 -9
-27 -16 -40 -16 -34 0 -118 -47 -124 -69 -2 -11 1 -32 9 -47 13 -24 12 -25 -1
-14 -8 7 -19 27 -23 44 -7 28 -11 21 -33 -70 l-24 -102 -38 15 c-21 9 -36 21
-34 27 3 8 -5 11 -24 8 -16 -2 -29 -10 -29 -18 0 -8 -7 -14 -16 -14 -13 0 -14
-3 -5 -13 6 -8 8 -17 4 -20 -3 -4 -1 -7 5 -7 7 0 12 -4 12 -10 0 -5 -7 -10
-15 -10 -21 0 -19 -20 3 -20 16 -1 16 -2 -2 -15 -10 -8 -16 -21 -13 -29 4 -9
3 -15 -1 -15 -4 1 -14 1 -22 0 -12 -1 -11 -5 5 -17 14 -12 16 -18 7 -21 -10
-4 -10 -8 -1 -19 12 -15 6 -19 -35 -26 -30 -5 -31 -26 -2 -34 14 -3 23 -10 20
-15 -3 -5 3 -9 13 -9 10 0 35 -3 56 -6 30 -5 37 -3 37 9 0 11 14 19 43 25 l42
8 -32 8 c-28 6 -33 12 -33 36 0 15 7 33 15 40 11 9 14 22 9 46 -4 23 -2 34 6
34 7 0 9 8 5 20 -14 44 27 30 177 -60 84 -51 162 -98 173 -104 11 -6 40 -25
65 -41 25 -16 88 -56 140 -90 52 -34 122 -77 155 -95 33 -18 74 -43 91 -56
l32 -23 19 47 c11 26 39 101 62 167 23 66 53 144 67 173 l24 52 -38 1 -37 2
40 6 c69 12 100 32 103 68 11 109 -279 228 -630 259 -48 4 -78 11 -78 18 0 7
6 36 14 66 30 116 57 254 52 267 -12 29 -24 9 -41 -68z"/>
<path d="M5966 8242 c-9 -2 -16 -13 -16 -26 0 -21 5 -24 77 -30 42 -3 98 -6
126 -6 43 0 48 2 37 15 -15 18 -24 17 145 17 107 0 129 2 95 8 -25 5 -83 10
-130 10 -47 1 -137 4 -201 8 -64 4 -124 6 -133 4z"/>
<path d="M9865 7483 c-84 -24 -82 -23 -65 -36 9 -7 15 -23 14 -37 -1 -14 3
-28 9 -32 6 -4 -1 -10 -16 -13 -31 -8 -37 -35 -7 -35 11 0 20 -7 20 -15 0 -8
-8 -15 -19 -15 -27 0 -46 -26 -25 -34 12 -5 14 -9 5 -20 -6 -7 -9 -21 -5 -30
4 -12 0 -16 -15 -16 -28 0 -27 -14 2 -28 22 -10 21 -11 -6 -11 -20 -1 -27 -6
-25 -18 2 -11 -7 -19 -29 -25 -18 -5 -33 -10 -33 -11 0 -1 4 -17 9 -35 7 -23
7 -30 -1 -26 -8 5 -9 1 -5 -10 4 -10 7 -20 7 -22 0 -2 11 -4 24 -4 14 0 28 -4
31 -10 3 -5 36 -10 73 -10 80 0 144 27 149 62 2 12 8 25 13 28 17 10 5 53 -16
61 -18 6 -18 7 -1 14 24 10 21 30 -8 53 -28 22 -32 32 -11 32 8 0 16 7 20 15
3 8 16 15 28 16 22 0 22 1 3 9 -11 5 -14 9 -7 9 7 1 17 11 23 24 l10 22 -5
-22 c-5 -28 -1 -28 25 -4 l21 19 -24 8 c-22 8 -22 8 7 15 l30 6 -33 8 c-32 7
-40 30 -17 47 15 11 22 10 39 -8 15 -14 17 -14 22 1 4 9 1 20 -6 25 -9 5 -6
12 11 24 24 16 17 21 -25 16 -10 -1 -30 3 -45 8 -47 18 -95 20 -146 5z"/>
<path d="M11305 6961 c-8 -14 -65 -193 -65 -206 0 -5 5 -3 11 5 8 12 9 11 5
-5 -2 -11 -19 -96 -36 -190 -35 -195 -70 -379 -73 -381 -1 -1 -33 -5 -70 -9
l-69 -7 5 58 c3 33 3 49 0 37 -2 -13 -10 -23 -17 -23 -11 0 -52 -58 -44 -65
21 -19 85 -55 97 -55 10 0 26 -7 37 -16 18 -14 18 -15 -6 -9 -18 4 -16 0 10
-12 19 -10 38 -23 43 -30 16 -25 268 -183 392 -247 114 -58 140 -67 208 -74
62 -7 77 -6 73 5 -3 7 -1 15 4 18 6 4 9 18 9 33 -1 17 -3 21 -6 10 -6 -23 -10
-23 -54 7 -35 25 -36 27 -28 68 4 23 8 65 9 92 l0 50 -21 -42 c-11 -23 -27
-47 -35 -54 -12 -10 -14 -4 -14 35 0 25 -4 46 -10 46 -5 0 -10 -6 -10 -12 0
-9 -3 -9 -9 1 -6 9 -6 22 0 33 5 10 12 47 14 83 5 89 12 108 36 102 31 -8 11
12 -34 34 -23 12 -39 18 -35 14 4 -4 -1 -21 -10 -39 -42 -75 -62 -95 -62 -60
0 10 -6 14 -15 10 -19 -7 -19 11 -1 46 15 28 16 52 3 64 -4 4 -7 -2 -7 -14 0
-26 -20 -72 -32 -72 -12 0 -10 18 3 22 17 6 19 65 2 65 -17 0 -17 -24 0 -30 8
-4 3 -14 -15 -30 -21 -20 -24 -26 -13 -31 8 -3 15 -10 15 -17 0 -6 9 -22 20
-36 11 -14 22 -40 26 -59 3 -19 10 -37 15 -40 5 -3 9 -14 9 -25 0 -14 -7 -19
-24 -19 -25 0 -39 13 -41 40 -1 8 -5 30 -9 48 -6 26 -12 32 -24 26 -10 -3 -38
-9 -64 -11 -27 -3 -48 -9 -48 -14 0 -5 -7 -9 -15 -9 -9 0 -12 6 -9 15 4 8 19
15 35 15 17 0 34 8 43 21 8 13 21 19 30 16 8 -3 20 1 26 9 13 14 4 19 -27 15
-8 -1 -13 11 -14 31 l-1 33 -11 -26 c-7 -14 -18 -24 -24 -22 -8 3 -13 -4 -13
-16 0 -33 -18 -34 -25 -1 -9 40 -28 38 -45 -5 -8 -20 -19 -34 -25 -31 -7 2
-18 0 -26 -4 -10 -7 -5 -13 21 -24 19 -8 30 -15 23 -16 -7 0 -10 -7 -7 -17 4
-11 2 -14 -3 -8 -12 15 -74 35 -86 28 -5 -3 -6 3 -2 17 4 13 3 20 -2 17 -5 -3
-15 -2 -23 4 -13 7 -12 9 2 9 13 0 18 14 23 68 5 59 88 570 115 713 10 52 8
70 -5 50z"/>
<path d="M11865 6300 c-33 -11 -68 -24 -77 -30 -10 -5 -28 -10 -40 -10 -19 0
-20 2 -8 11 12 9 12 10 1 7 -35 -10 -15 -29 96 -91 l118 -67 95 1 c86 1 242
14 213 17 -6 1 -81 43 -166 92 -86 50 -159 90 -164 89 -4 0 -35 -9 -68 -19z"/>
<path d="M12380 6029 c-10 -22 -10 -33 -1 -42 6 -6 10 -20 10 -31 -1 -17 -2
-18 -6 -3 -2 9 -11 17 -19 17 -22 0 -17 -11 22 -47 20 -18 31 -33 25 -33 -7 0
-9 -5 -5 -11 5 -8 9 -8 14 1 5 9 21 11 46 6 l39 -6 -40 16 c-22 9 -49 20 -60
25 -17 8 -16 8 5 4 95 -21 122 -41 83 -64 -16 -9 -14 -10 8 -11 16 0 29 7 33
16 5 12 13 14 33 9 22 -5 25 -4 15 8 -7 8 -10 21 -7 29 4 11 -21 36 -84 82
-50 36 -92 66 -94 66 -3 0 -10 -14 -17 -31z"/>
<path d="M8498 6044 c-5 -4 -8 -23 -8 -42 0 -29 2 -33 15 -22 12 10 13 7 5
-20 -8 -29 -7 -31 13 -26 12 3 16 3 10 0 -20 -9 -15 -20 13 -32 14 -7 23 -8
19 -2 -4 7 43 10 137 9 122 -1 134 -3 84 -10 -62 -9 -86 -19 -45 -19 37 0 69
-11 63 -21 -3 -5 2 -9 10 -9 9 0 16 -11 18 -27 4 -40 30 -35 41 7 5 19 13 40
18 46 6 7 113 13 311 18 342 7 348 9 348 74 0 25 -3 33 -9 23 -5 -8 -7 -21 -4
-29 5 -12 -22 -13 -198 -8 -537 16 -799 18 -799 7 0 -6 -5 -11 -12 -11 -8 0
-9 3 -1 11 11 11 5 59 -7 59 -5 0 -10 7 -12 16 -2 9 -6 12 -10 8z"/>
<path d="M10909 6038 c-5 -47 -7 -57 -14 -68 -4 -7 -16 -43 -25 -81 -19 -71
-17 -78 23 -92 10 -4 15 -11 12 -17 -9 -14 8 -12 40 4 20 10 35 11 62 4 20 -5
47 -8 61 -5 14 3 49 -1 76 -8 28 -7 69 -11 91 -9 73 7 90 7 110 -1 11 -4 -6 9
-39 29 -32 21 -74 48 -92 62 -18 14 -38 23 -44 19 -5 -3 -10 -2 -10 4 0 9
-232 171 -244 171 -3 0 -7 -6 -7 -12z"/>
<path d="M11625 5580 c-15 -16 -15 -20 -3 -20 17 0 48 -31 48 -49 0 -6 -10
-16 -22 -22 -13 -5 -34 -16 -48 -24 -22 -12 -36 -11 -117 10 -114 29 -115 29
-103 61 13 33 12 44 -1 22 -5 -10 -17 -18 -24 -18 -17 0 -20 -36 -5 -74 8 -22
16 -26 47 -26 21 0 54 -4 73 -10 23 -7 36 -6 41 1 4 6 22 9 43 6 20 -3 39 -1
42 4 3 5 19 9 35 9 17 0 28 4 25 8 -3 5 1 9 8 9 8 0 12 -6 9 -13 -3 -9 2 -11
16 -7 27 7 27 33 1 33 -26 0 -25 9 6 43 15 18 31 27 40 23 8 -3 12 -2 9 4 -3
6 -12 10 -18 10 -7 0 -23 9 -37 20 -32 25 -43 25 -65 0z"/>
<path d="M5760 5242 c0 -29 0 -30 73 -37 39 -4 83 -8 97 -11 14 -2 52 -7 85
-12 70 -11 105 -1 105 28 0 18 -6 20 -77 20 -69 0 -215 20 -265 36 -14 4 -18
-1 -18 -24z"/>
<path d="M7740 4800 c-59 -34 -75 -74 -48 -123 6 -12 10 -50 9 -85 -3 -72 11
-102 59 -127 17 -9 28 -20 25 -25 -4 -6 -2 -10 4 -10 5 0 11 5 13 10 2 6 17
13 33 16 38 7 82 49 89 83 3 14 8 59 11 99 7 68 6 72 -13 72 -11 0 -23 -8 -25
-17 -3 -10 -3 2 0 27 7 61 -16 88 -77 95 -33 4 -54 0 -80 -15z"/>
<path d="M7701 4360 c-2 -8 -4 -28 -5 -45 -2 -16 -9 -65 -16 -108 -11 -64 -11
-80 -1 -87 11 -6 8 -45 -13 -207 -14 -110 -26 -215 -26 -234 l-1 -34 -15 30
c-8 17 -11 21 -8 10 4 -11 9 -46 12 -77 3 -46 8 -59 24 -64 43 -13 56 22 83
222 28 210 32 262 20 317 l-8 38 61 -3 c33 -1 63 0 65 2 3 3 12 38 20 78 14
72 14 73 -10 109 -17 25 -20 34 -9 30 22 -9 20 0 -3 12 -39 21 -81 22 -120 1
l-40 -20 -4 23 c-2 12 -5 15 -6 7z"/>
<path d="M11560 3526 c0 -24 -3 -26 -47 -27 -44 0 -46 -1 -23 -12 14 -6 27
-14 30 -17 9 -11 124 -58 200 -83 108 -35 552 -196 572 -207 10 -6 24 -10 32
-10 8 0 21 -6 28 -13 7 -7 37 -19 67 -26 30 -8 83 -27 118 -43 69 -31 153 -48
153 -30 0 6 9 14 20 17 11 3 20 11 20 16 0 6 -8 6 -20 -1 -14 -7 -20 -7 -20 0
0 5 5 10 11 10 6 0 9 5 7 11 -4 11 -14 15 -178 74 -52 18 -138 49 -190 68 -52
19 -192 69 -310 112 -118 42 -242 87 -275 100 -33 13 -84 31 -113 41 -29 9
-60 23 -68 31 -12 13 -14 11 -14 -11z"/>
<path d="M1080 3436 c-30 -16 -71 -26 -124 -31 -66 -6 -79 -10 -83 -26 -4 -13
-11 -18 -22 -14 -12 3 -16 -2 -17 -20 -2 -20 3 -25 22 -25 24 0 69 -35 56 -43
-4 -2 -1 -2 6 0 8 1 20 3 27 3 7 0 12 8 11 18 0 9 5 16 13 14 7 -1 19 5 26 14
8 12 14 14 19 6 4 -7 21 -12 38 -12 24 0 28 -3 19 -13 -6 -8 -8 -17 -4 -20 3
-4 -13 -7 -36 -7 -26 0 -40 4 -36 10 3 6 3 10 0 10 -6 0 -35 -63 -35 -75 0 -3
5 -5 10 -5 6 0 10 7 10 15 0 14 11 19 37 16 6 -1 14 3 17 8 3 5 15 7 26 4 14
-4 20 0 20 11 0 9 8 16 21 16 11 0 17 -4 14 -10 -9 -15 0 -12 23 9 27 23 28
31 2 31 -11 0 -20 5 -20 10 0 6 5 10 12 10 7 0 5 7 -6 18 -13 12 -20 14 -23 5
-3 -7 -17 -13 -31 -12 -26 0 -26 1 -4 9 12 5 22 14 22 20 0 5 15 10 33 11 17
0 50 6 72 13 34 11 37 14 20 21 -11 4 -34 13 -52 21 -38 17 -30 18 -83 -10z"/>
<path d="M148 3068 c-10 -10 -29 -18 -43 -18 -17 0 -23 -4 -19 -14 3 -8 1 -23
-5 -33 -10 -15 -11 -14 -9 12 3 28 1 30 -34 33 l-38 3 0 -75 0 -74 35 9 c19 6
40 7 47 3 6 -4 8 -3 5 3 -4 6 0 14 9 17 8 3 12 10 9 16 -3 5 1 10 9 10 9 0 16
6 16 13 1 14 66 47 96 48 16 0 15 2 -5 10 -13 5 -22 12 -19 14 9 9 38 -7 49
-26 12 -23 30 -24 70 -4 21 11 34 13 47 6 14 -9 11 -10 -15 -11 -35 0 -51 -16
-35 -32 14 -14 69 -13 88 2 12 10 12 15 -1 33 -14 20 -13 23 7 39 23 18 23 18
-12 12 -19 -4 -39 -11 -44 -15 -6 -5 -18 -9 -28 -9 -10 0 -18 -4 -18 -10 0 -5
-7 -10 -15 -10 -8 0 -15 4 -15 8 0 5 -18 14 -40 21 -22 6 -40 16 -40 20 0 17
-36 17 -52 -1z"/>
<path d="M12149 3010 c-6 -16 -18 -30 -26 -30 -8 0 -13 -3 -11 -7 3 -5 11 -23
18 -40 9 -20 22 -33 32 -33 10 0 18 -4 18 -10 0 -5 6 -10 13 -10 6 -1 30 -19
52 -40 22 -22 48 -43 58 -46 12 -4 16 -11 12 -22 -3 -9 -3 -13 1 -9 4 3 19 -4
34 -16 16 -12 37 -29 48 -37 52 -40 102 -92 97 -100 -3 -6 0 -10 7 -10 8 0 43
-28 78 -63 56 -54 196 -157 214 -157 3 0 6 31 6 69 l0 69 -116 98 c-64 55
-133 112 -153 129 -20 16 -108 89 -195 162 -87 73 -163 133 -168 133 -5 0 -14
-13 -19 -30z"/>
<path d="M4652 1407 c15 -12 12 -14 -25 -26 -23 -6 -48 -15 -56 -18 -9 -4 -11
-1 -6 6 5 9 1 9 -14 -1 -13 -8 -19 -19 -15 -30 3 -11 0 -18 -8 -18 -8 0 -23
-7 -34 -16 -18 -15 -18 -15 6 -10 32 6 64 -17 57 -43 -3 -15 1 -20 22 -24 27
-5 45 2 24 10 -7 3 -13 11 -13 20 0 10 6 12 23 7 29 -9 34 -14 20 -22 -16 -10
15 -48 47 -56 24 -7 24 -6 6 8 -11 9 -15 16 -9 16 7 0 19 -7 27 -16 12 -12 16
-12 17 -2 1 7 5 2 9 -12 5 -17 8 -19 9 -7 1 19 41 25 41 5 0 -9 3 -9 12 0 9
10 8 16 -5 30 -15 15 -19 15 -27 2 -5 -8 -12 -11 -17 -7 -7 8 14 27 29 27 4 0
19 -12 33 -27 19 -21 25 -24 25 -11 0 9 -11 26 -24 39 -26 25 -25 39 3 39 10
0 21 9 24 20 3 11 13 20 24 20 17 -1 17 -1 1 -14 -10 -7 -15 -16 -11 -19 10
-11 25 -8 18 3 -4 6 12 10 39 10 53 0 57 10 19 40 -21 17 -24 21 -9 18 11 -2
20 3 21 13 2 14 -3 15 -29 9 -18 -4 -41 -12 -52 -18 -19 -11 -19 -11 1 -12 14
0 16 -3 8 -11 -16 -16 -59 -14 -79 2 -14 12 -14 14 3 20 15 6 12 9 -14 14 -18
4 -33 11 -33 15 0 8 -38 24 -80 35 -22 5 -23 5 -8 -8z"/>
<path d="M12406 1189 c-14 -17 -26 -35 -26 -40 0 -6 -6 -9 -12 -8 -7 1 -22 1
-33 0 -17 -1 -18 -3 -5 -11 9 -6 11 -10 3 -10 -7 0 -10 -7 -6 -16 3 -9 1 -19
-5 -23 -14 -8 -25 -81 -12 -81 11 0 9 -28 -4 -49 -7 -11 -5 -13 7 -8 11 4 17
1 17 -8 0 -8 -4 -15 -9 -15 -5 0 -7 -10 -3 -22 4 -17 2 -20 -12 -15 -10 4 -15
3 -11 -4 4 -5 15 -7 24 -4 27 8 51 -4 51 -26 0 -10 7 -19 15 -19 8 0 20 -9 27
-20 7 -11 23 -20 35 -20 12 0 27 -9 33 -20 6 -11 19 -20 30 -20 10 0 22 -4 25
-10 3 -5 1 -10 -6 -10 -7 0 -4 -6 7 -14 10 -8 19 -22 19 -31 0 -10 16 -26 35
-36 19 -11 29 -19 22 -19 -19 0 -14 -15 15 -44 22 -22 33 -26 58 -22 21 4 26
3 15 -3 -12 -8 -11 -11 5 -16 54 -18 75 -28 75 -37 0 -5 -9 -4 -19 2 -25 13
-41 13 -41 0 0 -5 9 -10 20 -10 13 0 20 -7 20 -20 0 -13 7 -20 19 -20 19 0 20
10 21 283 0 275 0 284 -21 311 -12 15 -26 25 -33 23 -6 -2 -26 4 -44 15 -26
14 -36 15 -51 6 -20 -12 -75 -3 -66 12 4 6 -1 13 -9 16 -9 3 -13 10 -10 15 3
5 0 9 -6 9 -7 0 -10 7 -7 15 12 28 -14 26 -40 -4 -15 -17 -33 -31 -41 -31 -7
0 -16 -10 -21 -22 -7 -21 -9 -19 -20 15 -9 27 -10 46 -2 67 13 38 9 38 -23 -1z"/>
<path d="M1176 1114 c-9 -8 -14 -20 -11 -25 9 -13 32 -11 38 4 3 7 6 4 6 -6 1
-14 6 -17 22 -12 16 5 20 3 17 -6 -3 -9 -18 -13 -44 -11 -21 1 -50 0 -64 -4
-24 -6 -24 -7 -5 -14 17 -7 17 -9 3 -9 -10 -1 -18 -5 -18 -11 0 -5 -4 -10 -10
-10 -5 0 -10 7 -10 15 0 8 -4 15 -10 15 -5 0 -10 -9 -10 -19 0 -11 -4 -23 -10
-26 -5 -3 -10 -13 -10 -21 0 -8 5 -14 10 -14 6 0 10 9 10 20 0 25 16 26 29 1
9 -15 7 -20 -12 -25 -18 -5 -20 -8 -7 -16 30 -20 40 -12 35 30 -4 31 -2 40 10
40 17 0 37 -32 32 -52 -2 -7 -2 -10 0 -5 8 13 23 -3 23 -24 0 -10 5 -19 10
-19 6 0 10 11 10 25 0 14 5 25 10 25 6 0 10 -11 10 -25 0 -14 5 -25 10 -25 6
0 10 9 10 19 0 11 8 21 18 24 9 2 -1 7 -23 11 -60 11 -62 13 -61 38 1 17 7 23
26 24 55 3 109 17 114 30 3 8 12 14 20 14 14 0 31 29 21 38 -3 3 -5 0 -5 -6 0
-18 -14 -14 -39 10 -19 17 -27 19 -42 10 -10 -7 -31 -12 -46 -12 -22 0 -25 2
-13 10 12 8 11 10 -7 10 -12 0 -29 -7 -37 -16z"/>
<path d="M3587 862 c-11 -2 -16 -9 -13 -18 3 -8 -1 -14 -9 -14 -8 0 -15 5 -15
10 0 6 -4 10 -10 10 -5 0 -10 -6 -10 -14 0 -7 -10 -21 -22 -30 l-23 -17 23 5
c27 5 31 -27 5 -44 -13 -8 -14 -13 -5 -16 6 -3 10 -9 7 -14 -3 -5 2 -15 11
-24 8 -9 12 -20 9 -26 -3 -6 1 -13 9 -16 23 -9 19 -24 -6 -25 -16 0 -18 -2 -8
-6 8 -3 18 -11 22 -17 4 -6 11 -1 17 14 5 14 10 19 10 13 1 -7 10 -13 21 -13
11 0 20 -7 20 -15 0 -8 5 -15 11 -15 6 0 8 7 5 16 -5 14 1 15 39 12 25 -2 45
0 45 4 0 8 -22 12 -50 9 -13 -2 -13 0 -1 8 8 5 19 7 26 5 14 -6 14 41 -1 56
-8 8 -15 3 -24 -19 -14 -36 -46 -44 -37 -10 5 19 3 20 -31 14 -30 -6 -34 -4
-24 8 7 7 9 17 5 20 -3 4 5 7 18 8 13 0 18 3 12 6 -15 5 -18 33 -4 33 6 0 17
-10 26 -22 15 -21 17 -22 26 -5 6 9 14 15 20 12 9 -6 13 7 10 38 -2 10 5 17
14 17 12 0 15 -6 10 -20 -3 -11 -2 -20 3 -20 16 0 20 23 8 42 -13 21 0 36 16
20 17 -17 58 -15 58 3 0 9 -9 15 -25 15 -14 0 -25 5 -25 10 0 18 -21 10 -46
-17 l-25 -28 5 28 c7 29 -10 37 -32 15 -9 -9 -12 -9 -12 2 0 9 -9 5 -25 -10
-20 -18 -25 -20 -25 -8 0 9 6 18 13 21 18 6 5 14 -16 9z"/>
</g>
</svg>
